<svg width="22" height="18" viewBox="0 0 22 18" fill="none" xmlns="http://www.w3.org/2000/svg">
<path d="M1 16.25C0.585786 16.25 0.25 16.5858 0.25 17C0.25 17.4142 0.585786 17.75 1 17.75V16.25ZM21 17.75C21.4142 17.75 21.75 17.4142 21.75 17C21.75 16.5858 21.4142 16.25 21 16.25V17.75ZM10.25 2C10.25 2.41421 10.5858 2.75 11 2.75C11.4142 2.75 11.75 2.41421 11.75 2H10.25ZM11.75 1C11.75 0.585786 11.4142 0.25 11 0.25C10.5858 0.25 10.25 0.585786 10.25 1H11.75ZM16.0303 3.59253C16.3232 3.29963 16.3232 2.82476 16.0303 2.53186C15.7374 2.23897 15.2625 2.23897 14.9697 2.53186L16.0303 3.59253ZM14.0318 3.46967C13.739 3.76256 13.739 4.23744 14.0318 4.53033C14.3247 4.82322 14.7996 4.82322 15.0925 4.53033L14.0318 3.46967ZM6.90747 4.53033C7.20037 4.82322 7.67524 4.82322 7.96813 4.53033C8.26103 4.23744 8.26103 3.76257 7.96814 3.46967L6.90747 4.53033ZM7.03033 2.53185C6.73744 2.23896 6.26257 2.23895 5.96967 2.53184C5.67678 2.82474 5.67677 3.29961 5.96967 3.5925L7.03033 2.53185ZM3.97222 17C3.97222 14.0419 5.84244 11.5087 8.48781 10.507L7.95664 9.10419C4.75452 10.3167 2.47222 13.3907 2.47222 17H3.97222ZM8.48781 10.507C9.26683 10.212 10.1134 10.05 11 10.05V8.55C9.92931 8.55 8.90295 8.74587 7.95664 9.10419L8.48781 10.507ZM11 10.05C11.8866 10.05 12.7332 10.212 13.5122 10.507L14.0434 9.10419C13.0971 8.74587 12.0707 8.55 11 8.55V10.05ZM13.5122 10.507C16.1576 11.5087 18.0278 14.0419 18.0278 17H19.5278C19.5278 13.3907 17.2455 10.3167 14.0434 9.10419L13.5122 10.507ZM8.97222 8.475C8.97222 8.06456 9.18983 7.64006 9.59416 7.29634C9.99986 6.95147 10.5258 6.75 11 6.75V5.25C10.1337 5.25 9.27069 5.60258 8.62263 6.15348C7.97322 6.70554 7.47222 7.51854 7.47222 8.475H8.97222ZM11 6.75C11.4742 6.75 12.0001 6.95147 12.4058 7.29634C12.8102 7.64006 13.0278 8.06456 13.0278 8.475H14.5278C14.5278 7.51854 14.0268 6.70554 13.3774 6.15348C12.7293 5.60258 11.8663 5.25 11 5.25V6.75ZM13.0278 8.475V9.80559H14.5278V8.475H13.0278ZM13.0278 9.80559V9.85H14.5278V9.80559H13.0278ZM7.47222 8.475V9.80559H8.97222V8.475H7.47222ZM7.47222 9.80559V9.85H8.97222V9.80559H7.47222ZM1 17.75H3.22222V16.25H1V17.75ZM3.22222 17.75H18.7778V16.25H3.22222V17.75ZM18.7778 17.75H21V16.25H18.7778V17.75ZM11.75 2V1H10.25V2H11.75ZM14.9697 2.53186L14.0318 3.46967L15.0925 4.53033L16.0303 3.59253L14.9697 2.53186ZM7.96814 3.46967L7.03033 2.53185L5.96967 3.5925L6.90747 4.53033L7.96814 3.46967Z" fill="white"/>
</svg>
