<svg width="25" height="24" viewBox="0 0 25 24" fill="none" xmlns="http://www.w3.org/2000/svg">
<path opacity="0.5" d="M10.5234 2C9.55694 2 8.77344 2.7835 8.77344 3.75C8.77344 4.7165 9.55694 5.5 10.5234 5.5H14.5234C15.4899 5.5 16.2734 4.7165 16.2734 3.75C16.2734 2.7835 15.4899 2 14.5234 2H10.5234Z" fill="#FF5501"/>
<path opacity="0.5" d="M4.38671 16.2052C3.52876 12.7734 3.09979 11.0575 4.00062 9.90376C4.90145 8.75 6.67016 8.75 10.2076 8.75H14.8382C18.3757 8.75 20.1444 8.75 21.0452 9.90376C21.946 11.0575 21.5171 12.7734 20.6591 16.2052C20.1134 18.3879 19.8406 19.4792 19.0268 20.1146C18.213 20.75 17.0881 20.75 14.8382 20.75H10.2076C7.95771 20.75 6.83278 20.75 6.019 20.1146C5.20521 19.4792 4.93238 18.3879 4.38671 16.2052Z" fill="#FF5501"/>
<path fill-rule="evenodd" clip-rule="evenodd" d="M5.14766 9.11761L8.00404 13.2237L11.7321 8.75H13.268L16.996 13.2237L19.8612 9.10492C20.3682 9.27577 20.7525 9.52885 21.0452 9.90376C21.0608 9.92372 21.076 9.94384 21.0908 9.96414L17.9919 14.4187L20.3842 17.2894C20.2012 17.9881 20.0369 18.5409 19.8443 18.9846L17.1036 15.6958L13.5876 20.75H11.4125L7.89651 15.6958L5.18603 18.9483C4.99631 18.5019 4.83322 17.947 4.65078 17.2476L7.00815 14.4187L3.93188 9.99661C3.95389 9.96525 3.97681 9.93431 4.00066 9.90376C4.28622 9.53803 4.65899 9.28823 5.14766 9.11761ZM12.5 19.6867L8.89241 14.5007L12.5 10.1715L16.1077 14.5007L12.5 19.6867Z" fill="#FF5501"/>
<path d="M16.1039 4.5024C16.2126 4.2745 16.2734 4.0194 16.2734 3.75009C16.2734 3.48204 16.2132 3.22806 16.1055 3.00098C16.789 3.00595 17.3217 3.03732 17.7973 3.22318C18.3655 3.44525 18.8597 3.82275 19.2234 4.31251C19.5903 4.80659 19.7626 5.43988 19.9996 6.31153L20.046 6.4819L20.5587 9.44488C20.1501 9.16295 19.6231 8.99542 18.9414 8.89587L18.5801 6.80786C18.2964 5.76815 18.1934 5.44141 18.0191 5.20683C17.8233 4.94312 17.5572 4.73985 17.2512 4.62027C17.0314 4.53436 16.7658 4.50909 16.1039 4.5024Z" fill="#FF5501"/>
<path d="M8.94142 3.00098C8.8337 3.22807 8.77344 3.48204 8.77344 3.75009C8.77344 4.0194 8.83427 4.2745 8.94294 4.5024C8.28109 4.50909 8.01551 4.53436 7.79571 4.62027C7.48976 4.73985 7.22365 4.94312 7.0278 5.20683C6.85359 5.44141 6.75059 5.76815 6.46681 6.80786L6.10551 8.89578C5.42397 8.99527 4.89697 9.16269 4.48828 9.44442L5.00092 6.4819L5.04731 6.31154C5.28439 5.43989 5.45663 4.80659 5.82356 4.31251C6.18728 3.82275 6.68149 3.44525 7.24968 3.22318C7.72521 3.03733 8.25793 3.00595 8.94142 3.00098Z" fill="#FF5501"/>
</svg>
