<svg width="20" height="20" viewBox="0 0 20 20" fill="none" xmlns="http://www.w3.org/2000/svg">
<path fill-rule="evenodd" clip-rule="evenodd" d="M6.25012 5.01346C6.25004 5.00898 6.25 5.00449 6.25 5V4C6.25 1.92893 7.92893 0.25 10 0.25C12.0711 0.25 13.75 1.92893 13.75 4V5C13.75 5.0045 13.75 5.00898 13.7499 5.01346C15.0472 5.04975 15.8375 5.18393 16.4425 5.67997C17.272 6.35995 17.5029 7.5144 17.9646 9.8233L18.5646 12.8233C19.2287 16.1437 19.5608 17.8039 18.6606 18.902C17.7604 20 16.0673 20 12.6812 20H7.3188C3.93262 20 2.23954 20 1.33936 18.902C0.439192 17.8039 0.771234 16.1437 1.43532 12.8233L2.03532 9.8233C2.4971 7.5144 2.72799 6.35995 3.55742 5.67997C4.16251 5.18392 4.95273 5.04975 6.25012 5.01346ZM7.75 4C7.75 2.75736 8.75736 1.75 10 1.75C11.2426 1.75 12.25 2.75736 12.25 4V5C12.25 5 12.25 5 12.25 5C12.1944 4.99999 12.1381 5 12.0812 5H7.9188C7.86185 5 7.80559 5 7.75 5.00001C7.75 5.00001 7.75 5.00001 7.75 5.00001V4ZM10.0004 15.25C9.02188 15.25 8.18745 14.625 7.87821 13.7501C7.74018 13.3595 7.31168 13.1548 6.92115 13.2929C6.53061 13.4309 6.32592 13.8594 6.46395 14.2499C6.97839 15.7054 8.36643 16.75 10.0004 16.75C11.6343 16.75 13.0224 15.7054 13.5368 14.2499C13.6748 13.8594 13.4701 13.4309 13.0796 13.2929C12.6891 13.1548 12.2606 13.3595 12.1225 13.7501C11.8133 14.625 10.9789 15.25 10.0004 15.25Z" fill="white"/>
</svg>
