<svg width="18" height="10" viewBox="0 0 18 10" fill="none" xmlns="http://www.w3.org/2000/svg">
<path d="M1.33333 1.66667H16.3333C16.5543 1.66667 16.7663 1.57887 16.9226 1.42259C17.0789 1.26631 17.1667 1.05435 17.1667 0.833333C17.1667 0.61232 17.0789 0.400358 16.9226 0.244078C16.7663 0.0877975 16.5543 0 16.3333 0H1.33333C1.11232 0 0.900358 0.0877975 0.744078 0.244078C0.587798 0.400358 0.5 0.61232 0.5 0.833333C0.5 1.05435 0.587798 1.26631 0.744078 1.42259C0.900358 1.57887 1.11232 1.66667 1.33333 1.66667ZM16.3333 4.16667H1.33333C1.11232 4.16667 0.900358 4.25446 0.744078 4.41074C0.587798 4.56702 0.5 4.77899 0.5 5C0.5 5.22101 0.587798 5.43297 0.744078 5.58926C0.900358 5.74554 1.11232 5.83333 1.33333 5.83333H16.3333C16.5543 5.83333 16.7663 5.74554 16.9226 5.58926C17.0789 5.43297 17.1667 5.22101 17.1667 5C17.1667 4.77899 17.0789 4.56702 16.9226 4.41074C16.7663 4.25446 16.5543 4.16667 16.3333 4.16667ZM16.3333 8.33333H1.33333C1.11232 8.33333 0.900358 8.42113 0.744078 8.57741C0.587798 8.73369 0.5 8.94565 0.5 9.16667C0.5 9.38768 0.587798 9.59964 0.744078 9.75592C0.900358 9.9122 1.11232 10 1.33333 10H16.3333C16.5543 10 16.7663 9.9122 16.9226 9.75592C17.0789 9.59964 17.1667 9.38768 17.1667 9.16667C17.1667 8.94565 17.0789 8.73369 16.9226 8.57741C16.7663 8.42113 16.5543 8.33333 16.3333 8.33333Z" fill="#FF5501"/>
</svg>
