<svg width="25" height="24" viewBox="0 0 25 24" fill="none" xmlns="http://www.w3.org/2000/svg">
<path opacity="0.5" d="M12.5002 16C6.74021 16 5.71983 10.2595 5.53907 5.70647C5.48879 4.43998 5.46365 3.80673 5.93937 3.22083C6.41508 2.63494 6.98445 2.53887 8.12318 2.34674C9.24724 2.15709 10.7166 2 12.5002 2C14.2837 2 15.7531 2.15709 16.8771 2.34674C18.0159 2.53887 18.5852 2.63494 19.0609 3.22083C19.5367 3.80673 19.5115 4.43998 19.4612 5.70647C19.2805 10.2595 18.2601 16 12.5002 16Z" fill="#FF5501"/>
<path d="M18.1404 12.422L20.9569 10.8572C21.7093 10.4392 22.0855 10.2302 22.2927 9.87809C22.4999 9.52598 22.4999 9.09561 22.4999 8.23487L22.4999 8.16234C22.5 7.11873 22.5 6.59692 22.2168 6.20408C21.9337 5.81124 21.4387 5.64623 20.4486 5.31621L19.5 5L19.4831 5.08464C19.4784 5.27391 19.4702 5.48006 19.4612 5.70645C19.3729 7.93085 19.0842 10.4387 18.1404 12.422Z" fill="#FF5501"/>
<path d="M5.53907 5.70647C5.62739 7.93096 5.91612 10.4389 6.86008 12.4223L4.04305 10.8572C3.29063 10.4392 2.91442 10.2302 2.70723 9.87809C2.50004 9.52598 2.50003 9.09561 2.5 8.23487L2.5 8.16234C2.49997 7.11874 2.49996 6.59692 2.7831 6.20408C3.06624 5.81124 3.56126 5.64623 4.55132 5.31621L5.49994 5L5.51728 5.08671C5.52196 5.27541 5.53011 5.4809 5.53907 5.70647Z" fill="#FF5501"/>
<path fill-rule="evenodd" clip-rule="evenodd" d="M5.75 22C5.75 21.5858 6.08579 21.25 6.5 21.25H18.5C18.9142 21.25 19.25 21.5858 19.25 22C19.25 22.4142 18.9142 22.75 18.5 22.75H6.5C6.08579 22.75 5.75 22.4142 5.75 22Z" fill="#FF5501"/>
<path opacity="0.5" d="M15.9575 21.25H9.04236L9.33918 19.5002C9.43266 19.0327 9.84307 18.6963 10.3198 18.6963H14.6801C15.1568 18.6963 15.5672 19.0327 15.6607 19.5002L15.9575 21.25Z" fill="#FF5501"/>
<path d="M12.5002 16.0002C12.2406 16.0002 11.9907 15.9885 11.75 15.9658V18.6963H13.25V15.9658C13.0094 15.9885 12.7596 16.0002 12.5002 16.0002Z" fill="#FF5501"/>
</svg>
