<svg width="156" height="40" viewBox="0 0 156 40" fill="none" xmlns="http://www.w3.org/2000/svg">
<path d="M145.598 24.7811C146.138 23.9018 146.636 23.0943 147.132 22.2845C148.723 19.6864 150.316 17.0898 151.901 14.4879C152.107 14.1495 152.374 13.9799 152.769 13.9829C153.634 13.9883 154.499 13.9768 155.364 13.989C155.849 13.9959 155.966 14.1243 155.995 14.6009C156.002 14.7278 155.999 14.8553 155.999 14.9821C155.999 20.2548 155.999 25.5274 155.999 30.8C155.999 30.9521 155.993 31.1049 155.989 31.2569C155.981 31.577 155.819 31.758 155.495 31.7603C154.694 31.7664 153.892 31.7664 153.091 31.7626C152.744 31.7611 152.594 31.551 152.573 31.2286C152.565 31.1148 152.57 31.0002 152.57 30.8856C152.57 27.3028 152.57 23.72 152.57 20.1371V19.6887C152.543 19.6765 152.516 19.6643 152.489 19.652C152.393 19.7873 152.291 19.9187 152.203 20.0592C150.522 22.7513 148.835 25.4396 147.168 28.1401C146.884 28.6007 146.546 28.8482 145.991 28.7856C145.714 28.7542 145.429 28.7558 145.152 28.7856C144.601 28.8452 144.258 28.6137 143.971 28.1469C142.6 25.9193 141.202 23.7085 139.812 21.4916C139.488 20.9752 139.164 20.4595 138.838 19.9446C138.781 19.8537 138.715 19.7689 138.556 19.6986C138.556 19.8423 138.556 19.9859 138.556 20.1295C138.556 23.7505 138.556 27.3715 138.556 30.9926C138.556 31.6549 138.448 31.7695 137.786 31.7756C137.125 31.7817 136.463 31.7855 135.802 31.7725C135.269 31.7618 135.15 31.635 135.149 31.1125C135.148 25.6237 135.148 20.1348 135.149 14.646C135.149 14.1227 135.269 13.9944 135.803 13.9867C136.618 13.9753 137.433 13.9997 138.246 13.9761C138.75 13.9615 139.071 14.164 139.331 14.5895C141.323 17.8515 143.33 21.1043 145.332 24.3601C145.404 24.477 145.479 24.5916 145.598 24.7803L145.598 24.7811Z" fill="white"/>
<path d="M105.252 13.9866C105.697 13.9866 106.142 13.9851 106.587 13.9866C106.941 13.9881 107.179 14.1546 107.333 14.4763C108.976 17.8941 110.624 21.3088 112.269 24.7251C113.271 26.8045 114.27 28.8847 115.268 30.9664C115.546 31.5485 115.42 31.7617 114.772 31.7724C113.983 31.7854 113.194 31.7693 112.406 31.7769C111.97 31.7815 111.703 31.5905 111.532 31.1864C111.221 30.4508 110.867 29.7334 110.546 29.0024C110.446 28.7747 110.315 28.6869 110.057 28.6876C106.851 28.6968 103.646 28.6968 100.44 28.6876C100.181 28.6876 100.054 28.7816 99.9531 29.0069C99.6154 29.7586 99.2564 30.5012 98.9118 31.2498C98.7514 31.5982 98.494 31.7762 98.1059 31.7747C97.2915 31.7716 96.4772 31.7854 95.6636 31.7708C95.0716 31.7609 94.9371 31.5302 95.1961 30.9939C96.9142 27.4294 98.6345 23.8665 100.356 20.3035C101.265 18.4189 102.19 16.5419 103.081 14.6481C103.307 14.1661 103.617 13.9453 104.143 13.9774C104.511 14.0003 104.88 13.982 105.249 13.982V13.9858L105.252 13.9866ZM105.334 17.6557C105.297 17.6542 105.259 17.6519 105.223 17.6504C103.959 20.3661 102.696 23.0812 101.408 25.8512H109.097C107.824 23.0781 106.579 20.3669 105.334 17.6557Z" fill="white"/>
<path d="M123.576 28.172C124.099 26.9986 124.586 25.9123 125.07 24.8245C126.578 21.4288 128.09 18.0347 129.587 14.6337C129.787 14.1791 130.067 13.9584 130.574 13.9767C131.26 14.0019 131.948 13.9782 132.635 13.9843C133.36 13.9905 133.487 14.183 133.192 14.8407C131.895 17.7337 130.594 20.6252 129.296 23.5174C128.153 26.0628 127.008 28.6067 125.875 31.1552C125.688 31.5746 125.421 31.7915 124.943 31.7823C124.002 31.7632 123.06 31.7694 122.118 31.7808C121.682 31.7862 121.412 31.6051 121.232 31.2056C118.779 25.7465 116.319 20.2913 113.86 14.8346C113.818 14.7422 113.778 14.6482 113.747 14.5519C113.65 14.2487 113.763 14.0218 114.081 14.0141C114.996 13.992 115.914 13.9744 116.826 14.0309C117.032 14.0439 117.303 14.3235 117.404 14.5435C118.946 17.9239 120.465 21.315 121.989 24.703C122.446 25.7206 122.904 26.7381 123.363 27.7549C123.414 27.868 123.476 27.9765 123.577 28.1728L123.576 28.172Z" fill="white"/>
<path d="M74.7939 19.1216C75.3722 18.4295 76.0537 17.9688 76.9039 17.7939C78.3554 17.4944 79.8091 17.5097 81.2476 17.8764C82.1246 18.1002 82.8427 18.5792 83.3828 19.3814C84.0543 18.47 84.9435 17.9276 86.0031 17.7817C86.9534 17.6503 87.9266 17.6289 88.8877 17.6488C89.4621 17.6602 90.0527 17.784 90.6019 17.9627C92.2161 18.4891 92.9411 19.748 93.1939 21.3263C93.2978 21.9749 93.3444 22.6395 93.349 23.2972C93.3666 25.8381 93.3566 28.3781 93.3559 30.919C93.3559 31.6722 93.2275 31.8005 92.4659 31.8036C91.9189 31.8059 91.372 31.8089 90.825 31.8028C90.1909 31.7952 90.0381 31.6393 90.0374 31.0076C90.0358 28.2888 90.0389 25.5707 90.0336 22.8519C90.0336 22.5356 90.0221 22.2148 89.9656 21.9054C89.8204 21.1139 89.4323 20.7411 88.6226 20.7106C87.5936 20.6709 86.5615 20.6716 85.5325 20.7091C84.6967 20.7396 84.2537 21.1682 84.1162 21.9841C84.068 22.2705 84.0459 22.5639 84.0459 22.8542C84.0405 25.573 84.0436 28.291 84.0428 31.0099C84.0428 31.6409 83.8961 31.7921 83.2567 31.8021C82.6846 31.8105 82.1116 31.8089 81.5394 31.8021C80.9161 31.7952 80.777 31.6531 80.777 31.0374C80.7763 28.3697 80.7786 25.7021 80.774 23.0345C80.774 22.693 80.7495 22.3492 80.709 22.0093C80.6097 21.1796 80.1789 20.7411 79.3363 20.7091C78.3202 20.6701 77.3004 20.6686 76.2844 20.706C75.334 20.7411 74.8459 21.3042 74.8108 22.3462C74.784 23.133 74.7947 23.9214 74.7939 24.7082C74.7924 26.8044 74.7939 28.8999 74.7932 30.9961C74.7932 31.6401 74.6541 31.7906 74.0193 31.8005C73.4089 31.8105 72.7978 31.8128 72.1874 31.799C71.645 31.7868 71.4831 31.6134 71.4831 31.0786C71.4816 26.8358 71.4816 22.5929 71.4831 18.35C71.4831 17.7695 71.6489 17.6067 72.2348 17.6045C72.8582 17.6022 73.4815 17.5983 74.1049 17.606C74.6159 17.6121 74.7855 17.7886 74.7932 18.3012C74.797 18.5739 74.7932 18.8474 74.7932 19.1201L74.7939 19.1216Z" fill="#FF5501"/>
<path d="M58.3512 26.0277C58.397 26.5976 58.4046 27.1064 58.4856 27.6029C58.5857 28.2179 58.9516 28.5494 59.5803 28.6533C59.8668 28.7007 60.1609 28.7221 60.452 28.7229C62.6918 28.7282 64.9309 28.7259 67.1707 28.7259C67.8361 28.7259 67.9606 28.8451 67.9637 29.4921C67.966 30.0513 67.9713 30.6105 67.9606 31.169C67.9522 31.6189 67.8208 31.7488 67.3724 31.7961C67.3342 31.8 67.296 31.803 67.2578 31.8022C64.6116 31.7847 61.9645 31.8084 59.3198 31.735C57.1396 31.6747 55.7783 30.5387 55.3199 28.4952C55.1793 27.8688 55.1198 27.2133 55.1098 26.5701C55.0869 25.0972 55.0877 23.6221 55.1419 22.15C55.1641 21.5496 55.2947 20.9384 55.4742 20.3624C55.954 18.8162 57.0976 18.0179 58.6438 17.7559C59.2052 17.6612 59.7812 17.613 60.3504 17.6123C61.8767 17.61 63.4046 17.6023 64.9278 17.6749C67.2807 17.7865 68.7673 19.1791 68.9881 21.5198C69.1103 22.8184 69.0813 24.1316 69.0996 25.4387C69.1058 25.8696 68.9079 26.0239 68.4335 26.0254C66.8812 26.03 65.3289 26.0269 63.7758 26.0269C62.1341 26.0269 60.4925 26.0269 58.8515 26.0269H58.3504L58.3512 26.0277ZM62.0814 23.5228C63.212 23.5228 64.3427 23.5167 65.4725 23.5274C65.7368 23.5297 65.8415 23.4449 65.8201 23.1775C65.7872 22.7741 65.801 22.3654 65.7468 21.9659C65.6352 21.134 65.2303 20.7283 64.3893 20.71C62.879 20.6764 61.3664 20.6772 59.8561 20.7077C58.9761 20.7253 58.5727 21.1256 58.4512 22.0018C58.3993 22.3761 58.4199 22.7604 58.3848 23.1385C58.3565 23.438 58.465 23.5343 58.7667 23.5297C59.8714 23.5144 60.9768 23.5236 62.0814 23.5236V23.5228Z" fill="#FF5501"/>
<path d="M47.7539 20.5732V20.9994C47.7539 22.9306 47.7516 24.8618 47.7547 26.7931C47.757 28.2797 48.2451 28.7739 49.7501 28.7961C50.7806 28.8114 51.8111 28.7999 52.8417 28.803C53.3703 28.8045 53.5407 28.955 53.5529 29.4676C53.5659 30.026 53.5605 30.586 53.5544 31.1444C53.5506 31.5004 53.4276 31.78 53.0136 31.7838C51.2351 31.7976 49.4468 31.9358 47.6898 31.56C45.7845 31.152 44.8288 30.0764 44.5981 28.1368C44.5172 27.4577 44.4751 26.7709 44.4683 26.0872C44.4499 24.3722 44.456 22.6571 44.4683 20.9414C44.4706 20.6579 44.385 20.5518 44.1008 20.5701C43.835 20.5869 43.5668 20.5709 43.2995 20.5655C42.9565 20.5579 42.7792 20.3577 42.7708 20.0376C42.7548 19.4158 42.7578 18.7924 42.7685 18.1706C42.7746 17.8261 42.971 17.6328 43.317 17.6114C43.5836 17.5954 43.8518 17.6076 44.1176 17.5862C44.8586 17.5251 45.2414 17.2019 45.3475 16.4709C45.4331 15.8826 45.4576 15.2837 45.4881 14.6886C45.5164 14.1248 45.6531 13.9728 46.2245 13.9591C46.4919 13.9529 46.7593 13.9514 47.0259 13.9591C47.5866 13.9759 47.7448 14.1317 47.7501 14.7016C47.7585 15.5144 47.7524 16.328 47.7524 17.1408C47.7524 17.2776 47.7524 17.4151 47.7524 17.6068C47.9235 17.6068 48.058 17.6068 48.1932 17.6068C49.7073 17.6068 51.2214 17.6068 52.7355 17.6068C53.4055 17.6068 53.5506 17.7481 53.5544 18.4021C53.5575 18.8979 53.5621 19.3929 53.5529 19.8887C53.543 20.4181 53.3955 20.5693 52.8638 20.5716C51.3367 20.5777 49.8104 20.5739 48.2833 20.5747C48.1214 20.5747 47.9594 20.5747 47.7524 20.5747L47.7539 20.5732Z" fill="#FF5501"/>
<path d="M37.4927 24.6715C37.4927 22.5753 37.4927 20.4783 37.4927 18.3821C37.4927 17.7473 37.6363 17.6075 38.2833 17.606C38.8945 17.6044 39.5049 17.6006 40.116 17.6075C40.6149 17.6128 40.7852 17.7694 40.799 18.2683C40.8158 18.8649 40.8043 19.4623 40.8043 20.0597C40.8043 23.6425 40.8043 27.2261 40.8043 30.8089C40.8043 30.961 40.8005 31.1137 40.7898 31.2658C40.7669 31.5752 40.6072 31.7738 40.2879 31.7784C39.5255 31.7891 38.7623 31.8043 38.0007 31.7745C37.6065 31.7593 37.4942 31.5637 37.4942 31.0763C37.4927 28.9419 37.4942 26.8067 37.4942 24.6723L37.4927 24.6715Z" fill="#FF5501"/>
<path d="M39.0969 16.0601C38.7539 16.0601 38.4101 16.0677 38.0679 16.0578C37.676 16.0463 37.5033 15.8867 37.498 15.5016C37.4873 14.7278 37.4896 13.9532 37.4972 13.1793C37.5003 12.8294 37.6936 12.6377 38.0465 12.6346C38.7837 12.6293 39.5209 12.6308 40.2573 12.6354C40.5736 12.6369 40.7714 12.8012 40.7775 13.1197C40.7928 13.931 40.8005 14.7431 40.7859 15.5536C40.7798 15.9042 40.5537 16.0662 40.2031 16.0608C39.8349 16.0555 39.4659 16.0593 39.0977 16.0593L39.0969 16.0601Z" fill="#FF5501"/>
<path d="M7.31987 8.6055C7.3191 7.54975 7.50703 6.55511 7.89205 5.60708C8.99822 2.88138 11.0478 1.3245 13.9233 0.824124C15.3365 0.578139 16.7582 0.501746 18.157 0.902045C20.3036 1.51701 21.5205 2.9891 21.9537 5.13726C22.0988 5.85688 21.6917 6.46497 21.0492 6.58109C20.3808 6.70179 19.8468 6.31448 19.6741 5.58263C19.2807 3.91727 18.432 3.13806 16.6849 3.00208C14.7468 2.85083 12.8828 3.11362 11.3786 4.49556C10.2052 5.57347 9.69416 6.96229 9.65367 8.60091C9.83548 8.60091 9.98292 8.60091 10.1304 8.60091C14.0233 8.58946 17.9163 8.5757 21.8093 8.5673C22.6733 8.56577 23.5419 8.52605 24.3998 8.59939C26.3111 8.76287 27.9383 10.4275 28.0811 12.3327C28.2782 14.953 28.4532 17.5755 28.6251 20.1973C28.6327 20.3142 28.5502 20.5044 28.4562 20.5503C27.1896 21.1668 25.9131 21.7642 24.6381 22.3654C24.5938 22.386 24.5442 22.3944 24.5724 22.386C24.0957 21.4097 23.6916 20.4227 23.1523 19.5159C22.4036 18.2577 21.357 17.3082 19.859 17.0064C18.6604 16.765 17.5397 17.0194 16.4862 17.616C16.2212 17.7665 15.9545 17.914 15.6879 18.0606C15.1929 18.3334 14.7239 18.2906 14.2571 17.9728C13.7858 17.6512 13.3213 17.3043 12.8102 17.0599C11.2839 16.3303 9.50928 16.6611 8.18692 17.8704C6.88901 19.0568 6.15946 20.577 5.62624 22.2118C5.04489 23.9956 4.77828 25.8382 4.66522 27.7014C4.63542 28.198 4.74619 28.7037 4.80119 29.2965C3.2573 29.3981 1.69277 29.5012 0.0969238 29.6067C0.151927 28.444 0.19929 27.3569 0.255057 26.2698C0.344437 24.5326 0.441456 22.7955 0.531599 21.0583C0.638549 18.9789 0.713414 16.8972 0.852449 14.8193C1.06177 11.6895 3.77906 8.94545 6.89436 8.66661C7.03034 8.65439 7.16479 8.62765 7.31987 8.60473V8.6055Z" fill="#FF5501"/>
<path d="M28.6082 22.3675C28.6571 23.2247 28.6984 24.0467 28.7534 24.8679C28.8993 27.0451 29.0269 29.2238 29.2087 31.3979C29.3439 33.0152 29.3515 34.6003 28.5051 36.0571C27.2981 38.135 25.5044 39.3451 23.0805 39.3627C17.6619 39.4024 12.2426 39.3588 6.82329 39.3558C5.0991 39.355 3.53152 38.9188 2.21909 37.7538C0.528519 36.2535 -0.152141 34.365 0.0281461 32.1283C0.0663425 31.6577 0.239754 31.485 0.69582 31.3666C2.56744 30.8815 4.36649 31.0427 6.12659 31.8173C6.8019 32.1145 7.48714 32.3742 8.25031 32.3444C9.10285 32.3116 9.85761 32.0091 10.5696 31.5675C11.5528 30.9579 12.3602 30.1474 13.1295 29.2987C13.7964 28.563 14.5321 27.9427 15.4923 27.618C15.7444 27.5325 15.9469 27.5477 16.1104 27.7357C16.351 28.0114 16.5955 28.291 16.788 28.6004C17.4793 29.7135 18.2837 30.7211 19.4044 31.4293C20.4823 32.1099 21.6473 32.4529 22.8757 31.9205C24.1354 31.375 25.4311 30.0763 25.3486 28.4324C25.279 27.0443 25.0911 25.6616 24.9253 24.2797C24.8894 23.9794 24.9154 23.8282 25.2248 23.709C26.2317 23.3232 27.224 22.9015 28.2232 22.4959C28.3378 22.4493 28.4577 22.4172 28.6082 22.3683V22.3675Z" fill="white"/>
<path fill-rule="evenodd" clip-rule="evenodd" d="M23.5137 30.0848C24.0003 29.4103 24.1477 28.6303 24.1195 27.8099H24.1202C24.0499 26.1575 23.8124 24.5295 23.3242 22.9474C22.8788 21.5052 22.2677 20.1431 21.1493 19.0774C20.2066 18.179 19.1043 17.7306 17.7781 17.975C17.0554 18.1087 16.4664 18.4983 15.8889 18.9193C15.2059 19.4173 14.8492 19.4173 14.1624 18.9437C14.0902 18.8939 14.019 18.8426 13.9478 18.7913C13.8126 18.6941 13.6776 18.5968 13.536 18.5098C12.1609 17.6626 10.7958 17.7031 9.46044 18.5931C8.69422 19.1034 8.14419 19.8176 7.69118 20.6075C6.80579 22.1499 6.36501 23.8367 6.11749 25.5777C6.10438 25.6696 6.091 25.7615 6.07762 25.8534C5.93973 26.8007 5.80151 27.7502 5.95401 28.7182C6.25424 30.6158 8.07468 31.8228 9.99978 30.7212C10.9111 30.1994 11.5842 29.4332 12.2213 28.6135C12.6857 28.0161 13.1861 27.4248 13.7652 26.9451C14.6307 26.2285 15.429 26.2392 16.2846 26.9604C16.8308 27.421 17.3068 27.9817 17.7468 28.5501C18.4137 29.411 19.1142 30.2223 20.0829 30.7563C21.3403 31.45 22.7192 31.1872 23.5137 30.0848ZM8.91735 24.3965C8.96965 24.4325 9.04527 24.4445 9.14477 24.4411C9.36451 24.4331 9.58463 24.4348 9.81292 24.4365C9.91161 24.4373 10.0118 24.438 10.1142 24.438L10.1144 24.4381C10.121 24.482 10.1265 24.5163 10.1311 24.5447C10.1387 24.5917 10.1436 24.6223 10.1465 24.6533C10.1575 24.7626 10.1565 24.8864 10.1554 25.0102C10.1531 25.2889 10.1508 25.5674 10.2862 25.6785C10.2941 25.6849 10.3023 25.691 10.3107 25.6967C10.4642 25.8008 10.7178 25.7808 10.9747 25.7606C11.1059 25.7503 11.2379 25.7399 11.3579 25.7459C11.5909 25.7573 11.678 25.6626 11.6703 25.4342C11.6624 25.2096 11.664 24.9846 11.6657 24.7453V24.7453V24.7452V24.7451V24.745V24.745C11.6665 24.6402 11.6673 24.5326 11.6673 24.4212H12.9843V23.6993V22.9377C12.9838 22.9377 12.9834 22.9377 12.9829 22.9377V22.9368C12.87 22.9368 12.7619 22.9361 12.657 22.9355C12.4227 22.934 12.205 22.9327 11.9875 22.939C11.8883 22.9419 11.8109 22.9314 11.7565 22.8948C11.6945 22.8523 11.6627 22.7752 11.6627 22.6443C11.6625 22.5699 11.6664 22.4876 11.6703 22.4034L11.6703 22.4034V22.4034V22.4033V22.4033C11.6836 22.1213 11.6978 21.8173 11.5649 21.7108C11.5582 21.7055 11.5513 21.7004 11.5442 21.6956C11.392 21.5909 11.1448 21.6046 10.8975 21.6182C10.7864 21.6243 10.6753 21.6304 10.5727 21.6259C10.5596 21.6253 10.5453 21.6236 10.5308 21.622C10.4892 21.6173 10.4456 21.6123 10.423 21.6304C10.4031 21.6468 10.3814 21.6634 10.3592 21.6803C10.2715 21.7473 10.177 21.8195 10.1617 21.9024C10.1212 22.1239 10.135 22.3585 10.151 22.5861C10.1701 22.8481 10.0762 22.9551 9.8065 22.9406C9.59084 22.9285 9.37445 22.9312 9.14736 22.9341C9.04465 22.9354 8.93974 22.9368 8.83173 22.9368C8.83173 23.0731 8.83283 23.2036 8.83389 23.3301C8.83626 23.6127 8.83846 23.8752 8.82791 24.1369C8.82239 24.2712 8.85185 24.3523 8.91735 24.3965ZM21.7187 23.3993C21.7979 23.5181 21.8446 23.6609 21.8468 23.816C21.8487 23.954 21.8167 24.083 21.7582 24.1952C21.6378 24.4267 21.405 24.587 21.1253 24.6065C21.1145 24.6073 21.1037 24.6079 21.0928 24.6082C20.7636 24.619 20.4792 24.4304 20.3534 24.1518C20.3092 24.0542 20.2845 23.9455 20.2843 23.8305C20.2836 23.4058 20.6273 23.0628 21.0605 23.0574C21.3376 23.054 21.5789 23.1893 21.7187 23.3993ZM19.0168 21.2516C18.6812 21.3354 18.4399 21.6325 18.4379 21.9987C18.4356 22.4334 18.7679 22.7733 19.2026 22.7802C19.2101 22.7803 19.2176 22.7803 19.2251 22.7802C19.4786 22.7771 19.7079 22.6511 19.8515 22.4605C19.9438 22.3379 20.0007 22.1884 20.0057 22.0277C20.0119 21.8216 19.9335 21.6311 19.8018 21.4877C19.6631 21.3365 19.4654 21.2378 19.2456 21.2286C19.2344 21.2281 19.2232 21.2279 19.212 21.2278C19.161 21.2278 19.1114 21.2325 19.0634 21.2415C19.0477 21.2444 19.0321 21.2478 19.0168 21.2516ZM16.9708 24.5016C17.0855 24.5684 17.2169 24.6079 17.3541 24.6094C17.7689 24.6132 18.1494 24.2565 18.1585 23.8524C18.1621 23.6924 18.1087 23.5377 18.0174 23.408C17.8764 23.2073 17.6443 23.0666 17.3908 23.0582C16.9561 23.0437 16.5719 23.4066 16.5696 23.8351C16.568 24.1102 16.7338 24.364 16.9708 24.5016ZM19.9035 25.2867C19.7651 25.0463 19.4999 24.8831 19.1997 24.8872C18.7673 24.8933 18.435 25.2348 18.438 25.6702L18.4373 25.6695C18.4389 25.8521 18.4993 26.017 18.6011 26.1469C18.7416 26.3263 18.9615 26.4389 19.215 26.4394C19.6413 26.4394 20.0004 26.0933 20.0057 25.6754C20.0074 25.5347 19.97 25.4018 19.9035 25.2867Z" fill="white"/>
</svg>
