<svg width="26" height="25" viewBox="0 0 26 25" fill="none" xmlns="http://www.w3.org/2000/svg">
<path d="M3.88267 8.12756C3.08165 9.57654 2.62756 11.2347 2.62756 12.9949C2.62756 14.7602 3.08165 16.4184 3.88267 17.8674V8.12756Z" fill="white"/>
<path d="M13.0357 2.76532C12.1939 2.76532 11.3724 2.86736 10.5867 3.05103V4.66328C11.3673 4.44389 12.1888 4.32144 13.0357 4.32144C17.9082 4.32144 21.8622 8.19389 21.8622 12.9694C21.8622 15.1225 21.0561 17.0867 19.7296 18.6021L19.4796 19.4847L18.9235 21.4388C21.6531 19.5919 23.449 16.5 23.449 13C23.4439 7.34695 18.7857 2.76532 13.0357 2.76532Z" fill="white"/>
<path d="M9.64285 1.36224H3.70407L4.82652 3.64796V21.2755L3.70407 23.5663H17.3316L18.5714 19.2347H9.64285V1.36224Z" fill="white"/>
</svg>
