<svg width="19" height="18" viewBox="0 0 19 18" fill="none" xmlns="http://www.w3.org/2000/svg">
<path d="M2.93553 5.85184C2.3588 6.8951 2.03186 8.08898 2.03186 9.35633C2.03186 10.6273 2.3588 11.8212 2.93553 12.8645V5.85184Z" fill="#417DFF"/>
<path d="M9.52572 1.99103C8.91959 1.99103 8.32817 2.0645 7.76245 2.19674V3.35756C8.32449 3.1996 8.91592 3.11144 9.52572 3.11144C13.0339 3.11144 15.8808 5.8996 15.8808 9.33797C15.8808 10.8882 15.3004 12.3025 14.3453 13.3935L14.1653 14.029L13.7649 15.4359C15.7302 14.1061 17.0233 11.88 17.0233 9.36001C17.0196 5.2898 13.6657 1.99103 9.52572 1.99103Z" fill="#417DFF"/>
<path d="M7.08286 0.98082H2.80695L3.61511 2.62653V15.3184L2.80695 16.9678H12.6188L13.5114 13.849H7.08286V0.98082Z" fill="#417DFF"/>
</svg>
