<svg width="70" height="31" viewBox="0 0 70 31" fill="none" xmlns="http://www.w3.org/2000/svg">
<path d="M30.5842 16.9915C30.6388 17.1188 30.6649 17.2058 30.7104 17.2808C30.9596 17.6925 31.0127 18.1368 31.0096 18.613C30.995 20.7984 30.9967 22.984 31.0092 25.169C31.0123 25.6993 31.0091 26.2126 30.6714 26.6607C30.6258 26.721 30.6123 26.8057 30.585 26.8768C30.8393 27.0214 37.8186 27.0473 38.543 26.9079C38.6168 26.1353 38.6685 25.3554 38.5881 24.5112C38.3608 24.61 38.2193 24.6956 38.0658 24.7335C37.7433 24.813 37.4158 24.9176 37.0886 24.9238C35.8902 24.9459 34.6907 24.9321 33.4918 24.9318H33.0709V23.0435H37.0727V20.9032H33.1029V18.9893H33.5017C34.7471 18.9888 35.9927 18.9779 37.2381 18.9964C37.494 19.0001 37.754 19.0958 38.0012 19.1806C38.2009 19.2491 38.3842 19.3649 38.6414 19.493V16.9915H30.5842Z" fill="url(#paint0_linear_152_408)"/>
<path d="M30.5842 16.9915C30.6388 17.1188 30.6649 17.2058 30.7104 17.2808C30.9596 17.6925 31.0127 18.1368 31.0096 18.613C30.995 20.7984 30.9967 22.984 31.0092 25.169C31.0123 25.6993 31.0091 26.2126 30.6714 26.6607C30.6258 26.721 30.6123 26.8057 30.585 26.8768C30.8393 27.0214 37.8186 27.0473 38.543 26.9079C38.6168 26.1353 38.6685 25.3554 38.5881 24.5112C38.3608 24.61 38.2193 24.6956 38.0658 24.7335C37.7433 24.813 37.4158 24.9176 37.0886 24.9238C35.8902 24.9459 34.6907 24.9321 33.4918 24.9318H33.0709V23.0435H37.0727V20.9032H33.1029V18.9893H33.5017C34.7471 18.9888 35.9927 18.9779 37.2381 18.9964C37.494 19.0001 37.754 19.0958 38.0012 19.1806C38.2009 19.2491 38.3842 19.3649 38.6414 19.493V16.9915H30.5842Z" fill="white"/>
<path d="M12.3913 17.0145C12.4365 17.1342 12.466 17.207 12.4915 17.281C12.599 17.5947 12.7927 17.9076 12.7981 18.2235C12.8396 20.6747 12.8448 23.1266 12.8611 25.5782C12.8635 25.9416 12.8171 26.2899 12.6011 26.6011C12.535 26.6966 12.5109 26.8216 12.453 26.9707H20.4232V24.5463C20.1462 24.6604 19.9171 24.7648 19.6806 24.8486C19.531 24.9015 19.3707 24.9537 19.2148 24.9545C17.8998 24.9614 16.5845 24.9568 15.2694 24.9541C15.1577 24.9539 15.046 24.9437 14.9221 24.9375V23.0466H18.893V20.9232H14.9237V19.02C14.9903 19.0087 15.0343 18.9948 15.0784 18.9947C16.4749 18.993 17.8715 18.9906 19.2681 18.9964C19.3774 18.9966 19.4919 19.0419 19.5941 19.088C19.8611 19.2085 20.1227 19.3411 20.4245 19.4875V17.0145H12.3913Z" fill="url(#paint1_linear_152_408)"/>
<path d="M12.3913 17.0145C12.4365 17.1342 12.466 17.207 12.4915 17.281C12.599 17.5947 12.7927 17.9076 12.7981 18.2235C12.8396 20.6747 12.8448 23.1266 12.8611 25.5782C12.8635 25.9416 12.8171 26.2899 12.6011 26.6011C12.535 26.6966 12.5109 26.8216 12.453 26.9707H20.4232V24.5463C20.1462 24.6604 19.9171 24.7648 19.6806 24.8486C19.531 24.9015 19.3707 24.9537 19.2148 24.9545C17.8998 24.9614 16.5845 24.9568 15.2694 24.9541C15.1577 24.9539 15.046 24.9437 14.9221 24.9375V23.0466H18.893V20.9232H14.9237V19.02C14.9903 19.0087 15.0343 18.9948 15.0784 18.9947C16.4749 18.993 17.8715 18.9906 19.2681 18.9964C19.3774 18.9966 19.4919 19.0419 19.5941 19.088C19.8611 19.2085 20.1227 19.3411 20.4245 19.4875V17.0145H12.3913Z" fill="white"/>
<path d="M49.5896 16.9529C49.3466 16.953 49.1037 16.953 48.8607 16.9529C48.6598 16.9529 48.4588 16.9735 48.2133 16.9869C48.2811 17.1417 48.3118 17.2409 48.3644 17.3264C48.6088 17.7237 48.6906 18.1464 48.6816 18.6172C48.6361 20.999 48.6205 23.3815 48.5803 25.7632C48.577 25.9591 48.4802 26.1577 48.4055 26.3467C48.3291 26.5406 48.2268 26.724 48.1307 26.9226C49.4855 26.9226 50.7728 26.9296 52.0601 26.9184C52.4412 26.9151 52.8292 26.8979 53.2012 26.8227C54.3839 26.5833 55.3377 25.9356 55.9762 24.9394C56.6383 23.9063 56.7813 22.7078 56.744 21.4919C56.7143 20.521 56.5027 19.6088 55.912 18.8132C55.0432 17.6428 53.8967 16.9861 52.4222 16.9652C51.6361 16.9543 50.85 16.9527 50.0639 16.9527C49.9058 16.9527 49.7478 16.9529 49.5896 16.9529ZM50.7296 19.0115C51.4985 19.0115 52.2086 18.916 52.8813 19.0341C53.8715 19.2077 54.3648 19.9818 54.5709 20.899C54.7475 21.6848 54.7146 22.4892 54.4671 23.2699C54.1506 24.2683 53.3146 24.9892 52.2124 24.9294C51.7174 24.9027 51.2196 24.9249 50.7296 24.9249V19.0115Z" fill="url(#paint2_linear_152_408)"/>
<path d="M49.5896 16.9529C49.3466 16.953 49.1037 16.953 48.8607 16.9529C48.6598 16.9529 48.4588 16.9735 48.2133 16.9869C48.2811 17.1417 48.3118 17.2409 48.3644 17.3264C48.6088 17.7237 48.6906 18.1464 48.6816 18.6172C48.6361 20.999 48.6205 23.3815 48.5803 25.7632C48.577 25.9591 48.4802 26.1577 48.4055 26.3467C48.3291 26.5406 48.2268 26.724 48.1307 26.9226C49.4855 26.9226 50.7728 26.9296 52.0601 26.9184C52.4412 26.9151 52.8292 26.8979 53.2012 26.8227C54.3839 26.5833 55.3377 25.9356 55.9762 24.9394C56.6383 23.9063 56.7813 22.7078 56.744 21.4919C56.7143 20.521 56.5027 19.6088 55.912 18.8132C55.0432 17.6428 53.8967 16.9861 52.4222 16.9652C51.6361 16.9543 50.85 16.9527 50.0639 16.9527C49.9058 16.9527 49.7478 16.9529 49.5896 16.9529ZM50.7296 19.0115C51.4985 19.0115 52.2086 18.916 52.8813 19.0341C53.8715 19.2077 54.3648 19.9818 54.5709 20.899C54.7475 21.6848 54.7146 22.4892 54.4671 23.2699C54.1506 24.2683 53.3146 24.9892 52.2124 24.9294C51.7174 24.9027 51.2196 24.9249 50.7296 24.9249V19.0115Z" fill="white"/>
<path d="M44.7028 16.9966C44.7654 17.1296 44.7987 17.2119 44.8413 17.2894C45.0607 17.6904 45.2049 18.0988 45.187 18.5756C45.1541 19.446 45.1741 20.3185 45.1669 21.19C45.165 21.4276 45.1447 21.665 45.1282 21.9924C43.2409 20.3801 41.5524 18.662 39.6957 17.1141C39.6424 17.2756 39.6276 17.4102 39.6269 17.5448C39.6137 20.0198 39.6086 22.4951 39.5857 24.9701C39.5801 25.5769 39.6134 26.2033 39.2116 26.7328C39.1806 26.7736 39.1778 26.8356 39.1504 26.9266H42.0596C41.9862 26.7651 41.9513 26.6533 41.8898 26.5587C41.6512 26.1929 41.5919 25.7956 41.6088 25.3647C41.6441 24.4829 41.6476 23.5997 41.6706 22.7174C41.6759 22.5037 41.7062 22.2905 41.7249 22.0773C41.7518 22.0643 41.7783 22.0512 41.8051 22.0382C43.5427 23.6533 45.2802 25.2684 47.0177 26.8833C47.0502 26.8668 47.0829 26.8502 47.1156 26.8338C47.1336 26.7154 47.1667 26.5973 47.1679 26.4785C47.1978 23.7947 47.2189 21.1107 47.2583 18.4268C47.2623 18.1603 47.361 17.891 47.4405 17.6307C47.5024 17.4277 47.6031 17.2365 47.705 16.9966H44.7028Z" fill="url(#paint3_linear_152_408)"/>
<path d="M44.7028 16.9966C44.7654 17.1296 44.7987 17.2119 44.8413 17.2894C45.0607 17.6904 45.2049 18.0988 45.187 18.5756C45.1541 19.446 45.1741 20.3185 45.1669 21.19C45.165 21.4276 45.1447 21.665 45.1282 21.9924C43.2409 20.3801 41.5524 18.662 39.6957 17.1141C39.6424 17.2756 39.6276 17.4102 39.6269 17.5448C39.6137 20.0198 39.6086 22.4951 39.5857 24.9701C39.5801 25.5769 39.6134 26.2033 39.2116 26.7328C39.1806 26.7736 39.1778 26.8356 39.1504 26.9266H42.0596C41.9862 26.7651 41.9513 26.6533 41.8898 26.5587C41.6512 26.1929 41.5919 25.7956 41.6088 25.3647C41.6441 24.4829 41.6476 23.5997 41.6706 22.7174C41.6759 22.5037 41.7062 22.2905 41.7249 22.0773C41.7518 22.0643 41.7783 22.0512 41.8051 22.0382C43.5427 23.6533 45.2802 25.2684 47.0177 26.8833C47.0502 26.8668 47.0829 26.8502 47.1156 26.8338C47.1336 26.7154 47.1667 26.5973 47.1679 26.4785C47.1978 23.7947 47.2189 21.1107 47.2583 18.4268C47.2623 18.1603 47.361 17.891 47.4405 17.6307C47.5024 17.4277 47.6031 17.2365 47.705 16.9966H44.7028Z" fill="white"/>
<path d="M24.7999 17.1062C22.5266 17.5792 20.6015 20.0513 20.9203 22.3745C21.1537 24.0765 21.908 25.4203 23.4375 26.2637C23.8398 26.4856 24.2737 26.6738 24.7159 26.7935C25.147 26.9105 25.6086 26.9743 26.0545 26.9639C26.8615 26.9449 27.6209 26.678 28.3721 26.3938C28.5145 26.3396 28.7141 26.3489 28.8585 26.4041C29.233 26.5472 29.5916 26.7319 30.0109 26.9252V22.0432H27.6126C27.6126 22.1097 27.6036 22.1384 27.614 22.1539C28.0006 22.7282 28.0404 23.3715 27.9621 24.0273C27.9442 24.1771 27.8475 24.3711 27.726 24.4468C26.6586 25.1115 25.5671 25.227 24.4462 24.5515C23.0326 23.6999 22.6945 22.2823 23.1422 20.9377C23.723 19.1926 25.8126 18.4977 27.2863 19.2876C27.6894 19.5036 28.052 19.7951 28.4599 20.07C28.9437 19.6945 29.4442 19.306 29.9299 18.9292C29.9102 18.8587 29.9106 18.8316 29.8971 18.8157C28.8378 17.5664 27.5446 16.9694 26.0695 16.9694C25.6598 16.9693 25.2365 17.0153 24.7999 17.1062Z" fill="url(#paint4_linear_152_408)"/>
<path d="M24.7999 17.1062C22.5266 17.5792 20.6015 20.0513 20.9203 22.3745C21.1537 24.0765 21.908 25.4203 23.4375 26.2637C23.8398 26.4856 24.2737 26.6738 24.7159 26.7935C25.147 26.9105 25.6086 26.9743 26.0545 26.9639C26.8615 26.9449 27.6209 26.678 28.3721 26.3938C28.5145 26.3396 28.7141 26.3489 28.8585 26.4041C29.233 26.5472 29.5916 26.7319 30.0109 26.9252V22.0432H27.6126C27.6126 22.1097 27.6036 22.1384 27.614 22.1539C28.0006 22.7282 28.0404 23.3715 27.9621 24.0273C27.9442 24.1771 27.8475 24.3711 27.726 24.4468C26.6586 25.1115 25.5671 25.227 24.4462 24.5515C23.0326 23.6999 22.6945 22.2823 23.1422 20.9377C23.723 19.1926 25.8126 18.4977 27.2863 19.2876C27.6894 19.5036 28.052 19.7951 28.4599 20.07C28.9437 19.6945 29.4442 19.306 29.9299 18.9292C29.9102 18.8587 29.9106 18.8316 29.8971 18.8157C28.8378 17.5664 27.5446 16.9694 26.0695 16.9694C25.6598 16.9693 25.2365 17.0153 24.7999 17.1062Z" fill="white"/>
<path d="M59.6829 17.1821C58.8035 17.4455 58.1027 17.9426 57.8665 18.8845C57.7697 19.2702 57.731 19.6829 57.7434 20.0809C57.7648 20.7779 58.0566 21.3811 58.6403 21.7735C59.0997 22.0825 59.5995 22.3473 60.1119 22.5576C60.8931 22.8781 61.7091 23.1139 62.4921 23.4308C62.7311 23.5273 62.9823 23.7334 63.1017 23.9566C63.3599 24.439 62.9655 24.9391 62.3187 25.0094C61.0277 25.1495 59.8077 24.8809 58.6323 24.3644C58.3318 24.2326 58.0353 24.0915 57.7338 23.9532C57.6048 24.3329 57.6165 26.7555 57.743 26.9479C58.0655 26.7722 58.39 26.5955 58.7194 26.4162C59.6399 26.7047 60.5707 26.9256 61.5445 26.9408C62.356 26.9534 63.1393 26.8902 63.8733 26.4905C65.0391 25.8558 65.5972 24.5846 65.1261 23.2622C64.8467 22.478 64.2723 21.9596 63.5513 21.6228C62.9126 21.3245 62.2294 21.1229 61.5711 20.8657C61.1397 20.6973 60.7107 20.5187 60.2924 20.3206C59.9498 20.1581 59.8139 19.8421 59.843 19.4846C59.8707 19.1444 60.1548 19.0134 60.4414 18.9284C60.6285 18.8729 60.8252 18.8335 61.0197 18.8212C61.8709 18.7676 62.6856 18.938 63.4635 19.2746C63.9168 19.4705 64.3576 19.6951 64.8039 19.9068C64.9521 19.6412 64.9809 17.2807 64.8325 17.0016C64.7713 17.0224 64.697 17.0297 64.6456 17.0678C64.1202 17.4594 63.5812 17.4303 62.9737 17.2367C62.3961 17.0526 61.8091 16.9558 61.2203 16.9558C60.7078 16.9558 60.1938 17.0292 59.6829 17.1821Z" fill="url(#paint5_linear_152_408)"/>
<path d="M59.6829 17.1821C58.8035 17.4455 58.1027 17.9426 57.8665 18.8845C57.7697 19.2702 57.731 19.6829 57.7434 20.0809C57.7648 20.7779 58.0566 21.3811 58.6403 21.7735C59.0997 22.0825 59.5995 22.3473 60.1119 22.5576C60.8931 22.8781 61.7091 23.1139 62.4921 23.4308C62.7311 23.5273 62.9823 23.7334 63.1017 23.9566C63.3599 24.439 62.9655 24.9391 62.3187 25.0094C61.0277 25.1495 59.8077 24.8809 58.6323 24.3644C58.3318 24.2326 58.0353 24.0915 57.7338 23.9532C57.6048 24.3329 57.6165 26.7555 57.743 26.9479C58.0655 26.7722 58.39 26.5955 58.7194 26.4162C59.6399 26.7047 60.5707 26.9256 61.5445 26.9408C62.356 26.9534 63.1393 26.8902 63.8733 26.4905C65.0391 25.8558 65.5972 24.5846 65.1261 23.2622C64.8467 22.478 64.2723 21.9596 63.5513 21.6228C62.9126 21.3245 62.2294 21.1229 61.5711 20.8657C61.1397 20.6973 60.7107 20.5187 60.2924 20.3206C59.9498 20.1581 59.8139 19.8421 59.843 19.4846C59.8707 19.1444 60.1548 19.0134 60.4414 18.9284C60.6285 18.8729 60.8252 18.8335 61.0197 18.8212C61.8709 18.7676 62.6856 18.938 63.4635 19.2746C63.9168 19.4705 64.3576 19.6951 64.8039 19.9068C64.9521 19.6412 64.9809 17.2807 64.8325 17.0016C64.7713 17.0224 64.697 17.0297 64.6456 17.0678C64.1202 17.4594 63.5812 17.4303 62.9737 17.2367C62.3961 17.0526 61.8091 16.9558 61.2203 16.9558C60.7078 16.9558 60.1938 17.0292 59.6829 17.1821Z" fill="white"/>
<path d="M6.64764 16.0847C6.07837 16.3454 5.51164 16.6115 4.94167 16.8705C4.75609 16.9549 4.70502 17.0883 4.70671 17.2865C4.73513 20.4224 4.75623 23.5584 4.7817 26.6943C4.78254 26.7825 4.81321 26.8704 4.83122 26.9647C4.93436 26.9753 5.01399 26.99 5.09349 26.9902C6.48963 26.9933 7.88578 26.9957 9.28192 26.9961C9.99146 26.9962 10.7013 26.9922 11.4108 26.9892C11.8198 26.9874 11.8357 26.9692 11.8353 26.5497C11.8347 26.1081 11.8359 25.6668 11.8363 25.2253C11.8364 25.0201 11.8363 24.8151 11.8363 24.5467C11.6635 24.6035 11.5413 24.6242 11.4391 24.6808C11.0255 24.9097 10.6007 25.0373 10.1134 25.0225C9.1719 24.9937 8.22894 25.0144 7.28654 25.0145H6.82871V16.083C6.75569 16.083 6.71348 16.0786 6.68534 16.0786C6.66916 16.0786 6.65763 16.08 6.64764 16.0847Z" fill="url(#paint6_linear_152_408)"/>
<path d="M6.64764 16.0847C6.07837 16.3454 5.51164 16.6115 4.94167 16.8705C4.75609 16.9549 4.70502 17.0883 4.70671 17.2865C4.73513 20.4224 4.75623 23.5584 4.7817 26.6943C4.78254 26.7825 4.81321 26.8704 4.83122 26.9647C4.93436 26.9753 5.01399 26.99 5.09349 26.9902C6.48963 26.9933 7.88578 26.9957 9.28192 26.9961C9.99146 26.9962 10.7013 26.9922 11.4108 26.9892C11.8198 26.9874 11.8357 26.9692 11.8353 26.5497C11.8347 26.1081 11.8359 25.6668 11.8363 25.2253C11.8364 25.0201 11.8363 24.8151 11.8363 24.5467C11.6635 24.6035 11.5413 24.6242 11.4391 24.6808C11.0255 24.9097 10.6007 25.0373 10.1134 25.0225C9.1719 24.9937 8.22894 25.0144 7.28654 25.0145H6.82871V16.083C6.75569 16.083 6.71348 16.0786 6.68534 16.0786C6.66916 16.0786 6.65763 16.08 6.64764 16.0847Z" fill="white"/>
<path d="M9.77642 4.04348C9.76094 7.65168 9.78599 11.2595 9.8296 14.9379C10.5034 14.6217 11.0601 14.335 11.6383 14.1006C11.9111 13.99 11.9636 13.8404 11.9595 13.5751C11.9423 12.4713 11.9457 11.3671 11.946 10.2632C11.946 10.0749 11.9671 9.88681 11.9783 9.69842L12.0795 9.65832C13.0298 10.7534 13.9802 11.8486 14.9441 12.9595C15.9699 11.8569 16.825 10.6663 17.8516 9.6199C17.8972 9.71066 17.9078 9.77664 17.9081 9.84249C17.9137 11.132 17.9147 12.4215 17.9293 13.7108C17.9306 13.8202 17.9923 13.9879 18.0749 14.0278C18.6871 14.3243 19.3117 14.5951 19.9632 14.8882V4.03391L19.8597 4.00929C18.1782 5.91209 16.6383 7.93772 14.9215 9.84966C13.212 7.86216 11.5512 5.93109 9.89024 4.00001L9.77642 4.04348Z" fill="url(#paint7_linear_152_408)"/>
<path d="M9.77642 4.04348C9.76094 7.65168 9.78599 11.2595 9.8296 14.9379C10.5034 14.6217 11.0601 14.335 11.6383 14.1006C11.9111 13.99 11.9636 13.8404 11.9595 13.5751C11.9423 12.4713 11.9457 11.3671 11.946 10.2632C11.946 10.0749 11.9671 9.88681 11.9783 9.69842L12.0795 9.65832C13.0298 10.7534 13.9802 11.8486 14.9441 12.9595C15.9699 11.8569 16.825 10.6663 17.8516 9.6199C17.8972 9.71066 17.9078 9.77664 17.9081 9.84249C17.9137 11.132 17.9147 12.4215 17.9293 13.7108C17.9306 13.8202 17.9923 13.9879 18.0749 14.0278C18.6871 14.3243 19.3117 14.5951 19.9632 14.8882V4.03391L19.8597 4.00929C18.1782 5.91209 16.6383 7.93772 14.9215 9.84966C13.212 7.86216 11.5512 5.93109 9.89024 4.00001L9.77642 4.04348Z" fill="white"/>
<path d="M32.6962 4.84533C32.3774 4.84561 32.0584 4.87572 31.6929 4.89457C31.7656 5.07396 31.8004 5.20805 31.8698 5.32074C32.1056 5.7033 32.1616 6.1178 32.1431 6.55706C32.1219 7.06737 32.1144 7.57867 32.1149 8.0894C32.1163 9.8311 32.1063 11.5731 32.1399 13.3142C32.1496 13.8276 32.0148 14.2682 31.774 14.6985C31.7362 14.7657 31.705 14.8363 31.6428 14.9614C31.7958 14.9911 31.9094 15.0314 32.0233 15.0323C33.431 15.0423 34.8389 15.0371 36.2466 15.0563C36.9149 15.0656 37.5398 14.9216 38.1175 14.6002C38.9221 14.1528 39.5042 13.5109 39.7133 12.5917C39.8814 11.8526 39.7799 11.1365 39.4295 10.4654C39.2328 10.0889 39.0036 9.72952 38.781 9.34851C39.0942 8.88069 39.338 8.15074 39.3398 7.70529C39.346 6.02888 37.9115 4.94776 36.465 4.86868C35.9165 4.83872 35.3668 4.83013 34.8167 4.83013C34.11 4.83013 33.4028 4.84434 32.6962 4.84533ZM34.3114 8.59704V6.67975C35.0476 6.67975 35.7549 6.65006 36.4581 6.69058C36.9066 6.71647 37.195 7.10944 37.199 7.5601C37.2035 8.07618 36.8788 8.55117 36.3967 8.58494C36.1242 8.60407 35.8507 8.6097 35.5742 8.6097C35.1615 8.6097 34.7427 8.59704 34.3114 8.59704ZM34.4436 13.1815C34.4004 13.1813 34.3573 13.1589 34.3064 13.1447V10.506C35.0986 10.506 35.8546 10.4514 36.5978 10.5249C37.116 10.576 37.5075 10.9335 37.6333 11.4739C37.7552 11.9974 37.7068 12.5132 37.2487 12.8626C37.031 13.0285 36.732 13.1551 36.462 13.1721C36.1891 13.1896 35.9153 13.1949 35.6412 13.1949C35.2423 13.1949 34.8427 13.1835 34.4436 13.1815Z" fill="url(#paint8_linear_152_408)"/>
<path d="M32.6962 4.84533C32.3774 4.84561 32.0584 4.87572 31.6929 4.89457C31.7656 5.07396 31.8004 5.20805 31.8698 5.32074C32.1056 5.7033 32.1616 6.1178 32.1431 6.55706C32.1219 7.06737 32.1144 7.57867 32.1149 8.0894C32.1163 9.8311 32.1063 11.5731 32.1399 13.3142C32.1496 13.8276 32.0148 14.2682 31.774 14.6985C31.7362 14.7657 31.705 14.8363 31.6428 14.9614C31.7958 14.9911 31.9094 15.0314 32.0233 15.0323C33.431 15.0423 34.8389 15.0371 36.2466 15.0563C36.9149 15.0656 37.5398 14.9216 38.1175 14.6002C38.9221 14.1528 39.5042 13.5109 39.7133 12.5917C39.8814 11.8526 39.7799 11.1365 39.4295 10.4654C39.2328 10.0889 39.0036 9.72952 38.781 9.34851C39.0942 8.88069 39.338 8.15074 39.3398 7.70529C39.346 6.02888 37.9115 4.94776 36.465 4.86868C35.9165 4.83872 35.3668 4.83013 34.8167 4.83013C34.11 4.83013 33.4028 4.84434 32.6962 4.84533ZM34.3114 8.59704V6.67975C35.0476 6.67975 35.7549 6.65006 36.4581 6.69058C36.9066 6.71647 37.195 7.10944 37.199 7.5601C37.2035 8.07618 36.8788 8.55117 36.3967 8.58494C36.1242 8.60407 35.8507 8.6097 35.5742 8.6097C35.1615 8.6097 34.7427 8.59704 34.3114 8.59704ZM34.4436 13.1815C34.4004 13.1813 34.3573 13.1589 34.3064 13.1447V10.506C35.0986 10.506 35.8546 10.4514 36.5978 10.5249C37.116 10.576 37.5075 10.9335 37.6333 11.4739C37.7552 11.9974 37.7068 12.5132 37.2487 12.8626C37.031 13.0285 36.732 13.1551 36.462 13.1721C36.1891 13.1896 35.9153 13.1949 35.6412 13.1949C35.2423 13.1949 34.8427 13.1835 34.4436 13.1815Z" fill="white"/>
<path d="M59.8043 4.80154C57.314 4.80548 54.824 4.80365 52.3339 4.80745C52.2312 4.80773 52.1289 4.85036 51.9928 4.88076C52.0735 5.06985 52.1451 5.20211 52.1867 5.34323C52.2606 5.59339 52.3726 5.84918 52.3715 6.1023C52.3615 8.635 52.3345 11.1677 52.3012 13.7001C52.2987 13.9005 52.2326 14.1063 52.1627 14.2974C52.0775 14.5298 51.957 14.7493 51.8291 15.0228H59.9997C59.99 14.1589 60.1225 13.3235 60.0015 12.4419C59.8256 12.5201 59.7242 12.5774 59.6154 12.6113C59.3297 12.7003 59.0418 12.8459 58.7527 12.851C57.4507 12.8738 56.1477 12.8562 54.8451 12.8504C54.7211 12.8499 54.5973 12.8295 54.4975 12.8205V10.9617H58.5319V8.81087H54.5512V6.94508C54.6404 6.93073 54.6855 6.91736 54.7308 6.91722C56.1033 6.90638 57.476 6.89105 58.8486 6.89485C59.0242 6.89541 59.2046 6.98447 59.3739 7.05412C59.6025 7.14824 59.8224 7.26319 60.1111 7.39995C60.1297 6.57828 60.1516 5.82667 60.1615 5.07478C60.1644 4.84558 60.007 4.80154 59.8059 4.80154C59.8054 4.80154 59.8048 4.80154 59.8043 4.80154Z" fill="url(#paint9_linear_152_408)"/>
<path d="M59.8043 4.80154C57.314 4.80548 54.824 4.80365 52.3339 4.80745C52.2312 4.80773 52.1289 4.85036 51.9928 4.88076C52.0735 5.06985 52.1451 5.20211 52.1867 5.34323C52.2606 5.59339 52.3726 5.84918 52.3715 6.1023C52.3615 8.635 52.3345 11.1677 52.3012 13.7001C52.2987 13.9005 52.2326 14.1063 52.1627 14.2974C52.0775 14.5298 51.957 14.7493 51.8291 15.0228H59.9997C59.99 14.1589 60.1225 13.3235 60.0015 12.4419C59.8256 12.5201 59.7242 12.5774 59.6154 12.6113C59.3297 12.7003 59.0418 12.8459 58.7527 12.851C57.4507 12.8738 56.1477 12.8562 54.8451 12.8504C54.7211 12.8499 54.5973 12.8295 54.4975 12.8205V10.9617H58.5319V8.81087H54.5512V6.94508C54.6404 6.93073 54.6855 6.91736 54.7308 6.91722C56.1033 6.90638 57.476 6.89105 58.8486 6.89485C59.0242 6.89541 59.2046 6.98447 59.3739 7.05412C59.6025 7.14824 59.8224 7.26319 60.1111 7.39995C60.1297 6.57828 60.1516 5.82667 60.1615 5.07478C60.1644 4.84558 60.007 4.80154 59.8059 4.80154C59.8054 4.80154 59.8048 4.80154 59.8043 4.80154Z" fill="white"/>
<path d="M20.9659 9.89762C20.8938 12.6397 23.2489 14.9978 25.9406 15.0328C29.0455 15.0731 31.1488 12.7064 31.2162 10.076C31.294 7.03822 28.8972 4.8861 26.1937 4.83559C26.1605 4.83489 26.1272 4.83461 26.0941 4.83461C23.1997 4.83447 20.9247 7.20171 20.9659 9.89762ZM23.094 9.98922C23.0857 8.19968 24.5326 6.88528 26.2307 6.94916C27.8189 7.00923 29.0782 8.32265 29.0723 9.99485C29.0666 11.5857 27.6183 13.0016 26.0605 12.917C26.0429 12.9174 26.0252 12.9176 26.0076 12.9176C24.3853 12.9177 23.101 11.4976 23.094 9.98922Z" fill="url(#paint10_linear_152_408)"/>
<path d="M20.9659 9.89762C20.8938 12.6397 23.2489 14.9978 25.9406 15.0328C29.0455 15.0731 31.1488 12.7064 31.2162 10.076C31.294 7.03822 28.8972 4.8861 26.1937 4.83559C26.1605 4.83489 26.1272 4.83461 26.0941 4.83461C23.1997 4.83447 20.9247 7.20171 20.9659 9.89762ZM23.094 9.98922C23.0857 8.19968 24.5326 6.88528 26.2307 6.94916C27.8189 7.00923 29.0782 8.32265 29.0723 9.99485C29.0666 11.5857 27.6183 13.0016 26.0605 12.917C26.0429 12.9174 26.0252 12.9176 26.0076 12.9176C24.3853 12.9177 23.101 11.4976 23.094 9.98922Z" fill="white"/>
<path d="M43.8478 4.87936C43.9415 5.071 43.9955 5.20635 44.07 5.32946C44.2613 5.64603 44.3374 5.97808 44.3331 6.35416C44.3009 9.10509 44.2854 11.856 44.2671 14.6071C44.2662 14.7409 44.2893 14.8747 44.3016 15.0126C44.4034 15.0304 44.4703 15.0527 44.5374 15.0527C46.7241 15.0545 48.9108 15.0527 51.0977 15.0563C51.3369 15.0569 51.4334 14.9522 51.4333 14.7211C51.4327 14.0475 51.4403 13.3741 51.4382 12.7005C51.4379 12.6287 51.3943 12.5573 51.3636 12.4637C51.264 12.516 51.1969 12.5598 51.1237 12.5884C50.8354 12.7016 50.5478 12.8961 50.2552 12.9051C49.1165 12.94 47.9759 12.916 46.8362 12.9124C46.7114 12.912 46.5866 12.9017 46.4179 12.8941C46.4179 12.7518 46.4175 12.6389 46.4179 12.526C46.4245 10.4934 46.4224 8.46069 46.4472 6.42831C46.4511 6.1033 46.5682 5.77772 46.6502 5.45679C46.6974 5.27219 46.7787 5.09632 46.8585 4.87936H43.8478Z" fill="url(#paint11_linear_152_408)"/>
<path d="M43.8478 4.87936C43.9415 5.071 43.9955 5.20635 44.07 5.32946C44.2613 5.64603 44.3374 5.97808 44.3331 6.35416C44.3009 9.10509 44.2854 11.856 44.2671 14.6071C44.2662 14.7409 44.2893 14.8747 44.3016 15.0126C44.4034 15.0304 44.4703 15.0527 44.5374 15.0527C46.7241 15.0545 48.9108 15.0527 51.0977 15.0563C51.3369 15.0569 51.4334 14.9522 51.4333 14.7211C51.4327 14.0475 51.4403 13.3741 51.4382 12.7005C51.4379 12.6287 51.3943 12.5573 51.3636 12.4637C51.264 12.516 51.1969 12.5598 51.1237 12.5884C50.8354 12.7016 50.5478 12.8961 50.2552 12.9051C49.1165 12.94 47.9759 12.916 46.8362 12.9124C46.7114 12.912 46.5866 12.9017 46.4179 12.8941C46.4179 12.7518 46.4175 12.6389 46.4179 12.526C46.4245 10.4934 46.4224 8.46069 46.4472 6.42831C46.4511 6.1033 46.5682 5.77772 46.6502 5.45679C46.6974 5.27219 46.7787 5.09632 46.8585 4.87936H43.8478Z" fill="white"/>
<path d="M40.2916 4.88878C40.3937 5.08759 40.4693 5.20549 40.5168 5.33381C40.6081 5.57918 40.7536 5.83033 40.7545 6.0795C40.7633 8.59012 40.7528 11.1009 40.7298 13.6115C40.7276 13.8669 40.626 14.1274 40.5389 14.3745C40.4683 14.5741 40.35 14.7569 40.2529 14.9473C40.2661 14.9805 40.2795 15.0138 40.2928 15.047C41.275 15.0635 42.2573 15.0629 43.3038 15.0483C43.2305 14.8761 43.207 14.7734 43.1503 14.6942C42.8805 14.3177 42.8181 13.9015 42.8219 13.445C42.8406 11.2366 42.8489 9.02783 42.8352 6.81944C42.8313 6.20895 42.9128 5.64278 43.2616 5.13078C43.2987 5.07633 43.3126 5.00655 43.3592 4.88878H40.2916Z" fill="url(#paint12_linear_152_408)"/>
<path d="M40.2916 4.88878C40.3937 5.08759 40.4693 5.20549 40.5168 5.33381C40.6081 5.57918 40.7536 5.83033 40.7545 6.0795C40.7633 8.59012 40.7528 11.1009 40.7298 13.6115C40.7276 13.8669 40.626 14.1274 40.5389 14.3745C40.4683 14.5741 40.35 14.7569 40.2529 14.9473C40.2661 14.9805 40.2795 15.0138 40.2928 15.047C41.275 15.0635 42.2573 15.0629 43.3038 15.0483C43.2305 14.8761 43.207 14.7734 43.1503 14.6942C42.8805 14.3177 42.8181 13.9015 42.8219 13.445C42.8406 11.2366 42.8489 9.02783 42.8352 6.81944C42.8313 6.20895 42.9128 5.64278 43.2616 5.13078C43.2987 5.07633 43.3126 5.00655 43.3592 4.88878H40.2916Z" fill="white"/>
<path d="M24.8848 9.80842C24.837 9.8668 24.8288 10.0264 24.8736 10.0807C25.2477 10.5351 25.6384 10.9758 26.0416 11.4408C26.117 11.4075 26.1714 11.4 26.1975 11.369C26.5559 10.9448 26.9185 10.5236 27.2573 10.084C27.3083 10.0176 27.2854 9.83121 27.2266 9.75397C26.9248 9.35903 26.6025 8.97957 26.281 8.6001C26.2269 8.53651 26.1414 8.49964 26.0522 8.43788C25.6461 8.91048 25.2577 9.35298 24.8848 9.80842Z" fill="url(#paint13_linear_152_408)"/>
<path d="M24.8848 9.80842C24.837 9.8668 24.8288 10.0264 24.8736 10.0807C25.2477 10.5351 25.6384 10.9758 26.0416 11.4408C26.117 11.4075 26.1714 11.4 26.1975 11.369C26.5559 10.9448 26.9185 10.5236 27.2573 10.084C27.3083 10.0176 27.2854 9.83121 27.2266 9.75397C26.9248 9.35903 26.6025 8.97957 26.281 8.6001C26.2269 8.53651 26.1414 8.49964 26.0522 8.43788C25.6461 8.91048 25.2577 9.35298 24.8848 9.80842Z" fill="white"/>
<defs>
<linearGradient id="paint0_linear_152_408" x1="-5.72262" y1="54.4962" x2="19.9317" y2="33.7705" gradientUnits="userSpaceOnUse">
<stop stop-color="#BA9258"/>
<stop offset="0.987437" stop-color="#E4C482"/>
<stop offset="1" stop-color="#E4C482"/>
</linearGradient>
<linearGradient id="paint1_linear_152_408" x1="-12.872" y1="45.6467" x2="12.7824" y2="24.9211" gradientUnits="userSpaceOnUse">
<stop stop-color="#BA9258"/>
<stop offset="0.987437" stop-color="#E4C482"/>
<stop offset="1" stop-color="#E4C482"/>
</linearGradient>
<linearGradient id="paint2_linear_152_408" x1="0.788913" y1="62.5561" x2="26.4432" y2="41.8304" gradientUnits="userSpaceOnUse">
<stop stop-color="#BA9258"/>
<stop offset="0.987437" stop-color="#E4C482"/>
<stop offset="1" stop-color="#E4C482"/>
</linearGradient>
<linearGradient id="paint3_linear_152_408" x1="-2.2189" y1="58.8332" x2="23.4354" y2="38.1075" gradientUnits="userSpaceOnUse">
<stop stop-color="#BA9258"/>
<stop offset="0.987437" stop-color="#E4C482"/>
<stop offset="1" stop-color="#E4C482"/>
</linearGradient>
<linearGradient id="paint4_linear_152_408" x1="-8.67105" y1="50.8467" x2="16.9833" y2="30.121" gradientUnits="userSpaceOnUse">
<stop stop-color="#BA9258"/>
<stop offset="0.987437" stop-color="#E4C482"/>
<stop offset="1" stop-color="#E4C482"/>
</linearGradient>
<linearGradient id="paint5_linear_152_408" x1="4.90339" y1="67.6491" x2="30.5577" y2="46.9235" gradientUnits="userSpaceOnUse">
<stop stop-color="#BA9258"/>
<stop offset="0.987437" stop-color="#E4C482"/>
<stop offset="1" stop-color="#E4C482"/>
</linearGradient>
<linearGradient id="paint6_linear_152_408" x1="-16.1012" y1="41.6496" x2="9.55309" y2="20.9239" gradientUnits="userSpaceOnUse">
<stop stop-color="#BA9258"/>
<stop offset="0.987437" stop-color="#E4C482"/>
<stop offset="1" stop-color="#E4C482"/>
</linearGradient>
<linearGradient id="paint7_linear_152_408" x1="-16.4859" y1="34.7976" x2="9.16839" y2="14.072" gradientUnits="userSpaceOnUse">
<stop stop-color="#BA9258"/>
<stop offset="0.987437" stop-color="#E4C482"/>
<stop offset="1" stop-color="#E4C482"/>
</linearGradient>
<linearGradient id="paint8_linear_152_408" x1="-8.41681" y1="44.7857" x2="17.2375" y2="24.06" gradientUnits="userSpaceOnUse">
<stop stop-color="#BA9258"/>
<stop offset="0.987437" stop-color="#E4C482"/>
<stop offset="1" stop-color="#E4C482"/>
</linearGradient>
<linearGradient id="paint9_linear_152_408" x1="-0.00679449" y1="55.1956" x2="25.6475" y2="34.4699" gradientUnits="userSpaceOnUse">
<stop stop-color="#BA9258"/>
<stop offset="0.987437" stop-color="#E4C482"/>
<stop offset="1" stop-color="#E4C482"/>
</linearGradient>
<linearGradient id="paint10_linear_152_408" x1="-11.8233" y1="40.5691" x2="13.831" y2="19.8434" gradientUnits="userSpaceOnUse">
<stop stop-color="#BA9258"/>
<stop offset="0.987437" stop-color="#E4C482"/>
<stop offset="1" stop-color="#E4C482"/>
</linearGradient>
<linearGradient id="paint11_linear_152_408" x1="-3.33348" y1="51.0779" x2="22.3209" y2="30.3522" gradientUnits="userSpaceOnUse">
<stop stop-color="#BA9258"/>
<stop offset="0.987437" stop-color="#E4C482"/>
<stop offset="1" stop-color="#E4C482"/>
</linearGradient>
<linearGradient id="paint12_linear_152_408" x1="-5.60591" y1="48.265" x2="20.0484" y2="27.5393" gradientUnits="userSpaceOnUse">
<stop stop-color="#BA9258"/>
<stop offset="0.987437" stop-color="#E4C482"/>
<stop offset="1" stop-color="#E4C482"/>
</linearGradient>
<linearGradient id="paint13_linear_152_408" x1="-11.8268" y1="40.5647" x2="13.8275" y2="19.8391" gradientUnits="userSpaceOnUse">
<stop stop-color="#BA9258"/>
<stop offset="0.987437" stop-color="#E4C482"/>
<stop offset="1" stop-color="#E4C482"/>
</linearGradient>
</defs>
</svg>
