<svg width="97" height="71" viewBox="0 0 97 71" fill="none" xmlns="http://www.w3.org/2000/svg">
<g clip-path="url(#clip0_152_305)">
<path fill-rule="evenodd" clip-rule="evenodd" d="M5.327 0.00448034H91.6367C92.6677 0.00448034 93.5083 0.817329 93.5083 1.80233V9.73914H97.0003V14.5364H93.5083V39.3424H97.0003V44.3864H93.5083V52.6923C93.5083 53.6826 92.664 54.4902 91.6385 54.4902H5.327C4.29603 54.4902 3.45536 53.6826 3.45536 52.6923V44.7023H0.00585938V39.6566H3.45536V15.2498H0.00585938V9.78706L3.45536 9.78883V1.79701C3.45536 0.808455 4.29603 0.000930786 5.327 0.000930786V0.00448034ZM8.96127 49.4445H88.008V5.0697L8.96127 5.07147V49.4445ZM29.7433 27.6325V27.7602C29.7433 29.3451 28.3945 30.6443 26.7409 30.6443H21.4382V44.1468H15.7975C15.7975 39.6477 15.7938 35.1433 15.7938 30.6443H15.7882V30.1793L14.8644 29.2919V25.973L15.7938 25.0803V21.3799C15.7882 17.644 15.7882 13.9134 15.7882 10.1811C19.5075 10.1811 23.0272 10.1811 26.7446 10.1811C28.3945 10.1811 29.747 11.4766 29.747 13.0651V27.6236L29.7433 27.6325ZM48.1825 10.7011V41.2539C48.1825 42.8423 46.8301 44.1379 45.1802 44.1379H36.21C34.5563 44.1379 33.2076 42.837 33.2076 41.2539V10.7011H38.8484V39.1508H42.5473V10.7011H48.1825ZM61.3062 10.1367H61.9528C63.6065 10.1367 64.9552 11.4376 64.9552 13.0207V25.2542L63.7358 26.5321L65.3284 28.0531V41.2486C65.3284 42.837 63.976 44.1326 62.3261 44.1326H54.797C54.6917 44.1326 54.5808 44.129 54.4737 44.1148H51.7762V28.9227L50.784 27.9697V24.6508L51.7762 23.696V10.1278C51.8556 10.1278 61.2267 10.1278 61.3062 10.1278V10.1367ZM57.3338 23.7013H59.5084V15.2924H57.3338V23.7013ZM57.3338 39.204H59.7449V29.1321H57.3338V39.204ZM71.6806 10.142H79.6438C81.2974 10.142 82.6462 11.4429 82.6462 13.026V17.912C82.6739 18.7284 82.7423 18.755 81.9903 18.7497H78.7237C77.689 18.7674 77.8368 18.755 77.8239 17.8002V15.3829H74.4705V39.4081H77.4267V28.156H76.9186C76.3458 28.156 76.355 28.2448 76.355 27.691V24.4733C76.355 23.8433 76.3089 23.9196 76.9648 23.9196C78.659 23.9232 80.3274 23.932 82.018 23.9374C82.7016 23.9374 82.6406 23.8699 82.6406 24.5266V41.2627C82.6406 42.8512 81.2882 44.1468 79.6383 44.1468H71.675C70.0214 44.1468 68.6726 42.8476 68.6726 41.2627V13.0314C68.6726 11.4429 70.0269 10.1473 71.675 10.1473L71.6806 10.142ZM24.1099 25.6536V15.1646H21.4438V25.6536H24.1099Z" fill="white"/>
<path d="M17.314 67.801V57.1736H20.5695L23.3225 61.307L26.0773 57.1736H29.4104V67.801H25.826V62.0294L23.2449 66.2303H22.4855L19.8176 62.0294V67.801H17.314ZM36.969 68.0193C36.2854 68.0193 35.6751 67.9489 35.138 67.8081C34.601 67.6625 34.1261 67.4649 33.7135 67.2153C33.307 66.9597 32.9603 66.6586 32.6733 66.3119C32.3925 65.9617 32.1603 65.5837 31.9767 65.1778C31.7994 64.7673 31.6694 64.3366 31.5869 63.8858C31.5081 63.4338 31.4686 62.9753 31.4686 62.5103C31.4686 62.0489 31.5185 61.5928 31.6183 61.142C31.7168 60.6853 31.8653 60.2516 32.0636 59.8411C32.2619 59.4305 32.5119 59.0495 32.8137 58.6981C33.1167 58.3479 33.4715 58.045 33.8779 57.7894C34.2857 57.5339 34.7451 57.3333 35.2563 57.1878C35.7724 57.0422 36.3433 56.9695 36.969 56.9695C37.5947 56.9695 38.1632 57.0422 38.6744 57.1878C39.1917 57.3333 39.6536 57.5339 40.0601 57.7894C40.4727 58.045 40.8299 58.3479 41.1317 58.6981C41.4347 59.0495 41.6854 59.4305 41.8837 59.8411C42.0869 60.2516 42.2378 60.6853 42.3363 61.142C42.4361 61.5928 42.486 62.0489 42.486 62.5103C42.486 62.9753 42.4441 63.4338 42.3604 63.8858C42.2766 64.3366 42.1436 64.7673 41.9613 65.1778C41.7839 65.5837 41.5517 65.9617 41.2647 66.3119C40.9777 66.6586 40.631 66.9597 40.2245 67.2153C39.818 67.4649 39.3432 67.6625 38.8 67.8081C38.263 67.9489 37.6526 68.0193 36.969 68.0193ZM34.9736 62.5103C34.9736 63.1114 35.0179 63.6249 35.1066 64.0508C35.2015 64.4768 35.332 64.8247 35.4983 65.0944C35.6708 65.3654 35.8795 65.5636 36.1246 65.689C36.3747 65.8144 36.6561 65.8771 36.969 65.8771C37.2819 65.8771 37.5609 65.8144 37.806 65.689C38.0573 65.5636 38.2685 65.3654 38.4397 65.0944C38.6171 64.8247 38.7501 64.4768 38.8388 64.0508C38.9336 63.6249 38.9811 63.1114 38.9811 62.5103C38.9811 61.9081 38.9336 61.394 38.8388 60.9681C38.7501 60.5374 38.6171 60.1872 38.4397 59.9174C38.2685 59.6417 38.0573 59.4388 37.806 59.3086C37.5609 59.1773 37.2819 59.1116 36.969 59.1116C36.6561 59.1116 36.3747 59.1773 36.1246 59.3086C35.8795 59.4388 35.6708 59.6417 35.4983 59.9174C35.332 60.1872 35.2015 60.5374 35.1066 60.9681C35.0179 61.394 34.9736 61.9081 34.9736 62.5103ZM44.5442 67.801V57.1736H48.2672C48.5912 57.1736 48.9459 57.186 49.3314 57.2109C49.7231 57.231 50.1148 57.2759 50.5065 57.3457C50.897 57.4108 51.2751 57.5061 51.641 57.6315C52.0056 57.7522 52.3289 57.9125 52.611 58.1124C52.898 58.3077 53.1246 58.5508 53.2909 58.8419C53.4633 59.127 53.5495 59.4678 53.5495 59.8641C53.5495 60.0996 53.5206 60.3351 53.4627 60.5705C53.406 60.8012 53.302 61.0142 53.1505 61.2094C53.0039 61.4047 52.8006 61.575 52.5407 61.7206C52.2845 61.8661 51.9557 61.969 51.5541 62.0294C51.9926 62.0542 52.3812 62.1518 52.72 62.3222C53.0648 62.4867 53.3543 62.6943 53.5883 62.9452C53.8236 63.196 54.001 63.474 54.1205 63.7793C54.2461 64.0798 54.3089 64.378 54.3089 64.6738C54.3089 65.0702 54.2252 65.4559 54.0576 65.831C53.8914 66.2025 53.6099 66.5361 53.2133 66.8319C52.8216 67.1218 52.3024 67.3573 51.6557 67.5383C51.0091 67.7134 50.206 67.801 49.2464 67.801H44.5442ZM48.0492 63.4723V65.8771H49.4663C49.9147 65.8771 50.2485 65.7671 50.4677 65.547C50.6919 65.321 50.804 65.0299 50.804 64.6738C50.804 64.4632 50.7646 64.2828 50.6857 64.1325C50.6131 63.9822 50.4751 63.8598 50.2719 63.7651C50.0686 63.6645 49.7866 63.5918 49.4257 63.5468C49.0709 63.4971 48.6121 63.4723 48.0492 63.4723ZM48.0492 61.5484H49.1448C49.3899 61.5484 49.6141 61.5153 49.8174 61.449C50.0206 61.3792 50.1955 61.2893 50.3421 61.1793C50.4874 61.0692 50.5995 60.9414 50.6783 60.7959C50.7621 60.6504 50.804 60.5001 50.804 60.3451C50.804 60.1049 50.7541 59.9067 50.6543 59.7506C50.5558 59.5956 50.3969 59.4731 50.1776 59.3832C49.9584 59.2933 49.6739 59.2306 49.324 59.1951C48.9755 59.1596 48.5505 59.1418 48.0492 59.1418V61.5484ZM56.672 67.8027V57.1754H60.177V67.8027H56.672ZM62.8468 67.8027V57.1754H66.3517V65.6375H70.1079V67.8027H62.8468ZM71.8521 67.8027V57.1754H79.6139V59.1436H75.357V61.3905H79.1132V63.3161H75.357V65.6375H79.6139V67.8027H71.8521Z" fill="white"/>
</g>
<defs>
<clipPath id="clip0_152_305">
<rect width="97" height="71" fill="white"/>
</clipPath>
</defs>
</svg>
