<svg width="27" height="20" viewBox="0 0 27 20" fill="none" xmlns="http://www.w3.org/2000/svg">
<g clip-path="url(#clip0_159_121)">
<path fill-rule="evenodd" clip-rule="evenodd" d="M1.48273 0.00125927H25.5071C25.7941 0.00125927 26.028 0.230231 26.028 0.507696V2.74342H27V4.09475H26.028V11.0824H27V12.5032H26.028V14.8429C26.028 15.1219 25.793 15.3493 25.5076 15.3493H1.48273C1.19576 15.3493 0.961758 15.1219 0.961758 14.8429V12.5922H0.00158691V11.1709H0.961758V4.29572H0.00158691V2.75691L0.961758 2.75741V0.506196C0.961758 0.227731 1.19576 0.000259399 1.48273 0.000259399V0.00125927ZM2.49433 13.928H24.497V1.42808L2.49433 1.42858V13.928ZM8.27902 7.78379V7.81978C8.27902 8.26623 7.90359 8.63218 7.4433 8.63218H5.9673V12.4357H4.39719C4.39719 11.1684 4.39616 9.89952 4.39616 8.63218H4.39462V8.5012L4.13747 8.25123V7.31634L4.39616 7.06488V6.02251C4.39462 4.97014 4.39462 3.91927 4.39462 2.8679C5.42987 2.8679 6.40959 2.8679 7.44433 2.8679C7.90359 2.8679 8.28004 3.23286 8.28004 3.6803V7.78129L8.27902 7.78379ZM13.4116 3.01438V11.6208C13.4116 12.0682 13.0351 12.4332 12.5759 12.4332H10.079C9.61873 12.4332 9.2433 12.0668 9.2433 11.6208V3.01438H10.8134V11.0284H11.843V3.01438H13.4116ZM17.0646 2.8554H17.2446C17.7048 2.8554 18.0803 3.22186 18.0803 3.6678V7.11387L17.7408 7.47382L18.1842 7.90227V11.6193C18.1842 12.0668 17.8077 12.4317 17.3484 12.4317H15.2527C15.2234 12.4317 15.1926 12.4307 15.1627 12.4267H14.4119V8.14724L14.1357 7.87877V6.94389L14.4119 6.67492V2.8529C14.434 2.8529 17.0424 2.8529 17.0646 2.8529V2.8554ZM15.9588 6.67642H16.5642V4.30772H15.9588V6.67642ZM15.9588 11.0434H16.63V8.20623H15.9588V11.0434ZM19.9523 2.8569H22.1688C22.6291 2.8569 23.0046 3.22336 23.0046 3.6693V5.04563C23.0123 5.2756 23.0313 5.2831 22.822 5.2816H21.9127C21.6247 5.2866 21.6659 5.2831 21.6623 5.01413V4.33322H20.7288V11.1009H21.5517V7.93127H21.4103C21.2508 7.93127 21.2534 7.95626 21.2534 7.80028V6.8939C21.2534 6.71642 21.2406 6.73792 21.4231 6.73792C21.8947 6.73892 22.3591 6.74142 22.8297 6.74292C23.02 6.74292 23.003 6.72392 23.003 6.9089V11.6233C23.003 12.0708 22.6266 12.4357 22.1673 12.4357H19.9507C19.4904 12.4357 19.115 12.0697 19.115 11.6233V3.6708C19.115 3.22336 19.492 2.8584 19.9507 2.8584L19.9523 2.8569ZM6.71096 7.22636V4.27173H5.96884V7.22636H6.71096Z" fill="#EE9B1E"/>
<path d="M4.8194 19.0989V16.1052H5.72557L6.49185 17.2696L7.25865 16.1052H8.18643V19.0989H7.18871V17.4731L6.47025 18.6564H6.25888L5.51625 17.4731V19.0989H4.8194ZM10.2904 19.1604C10.1001 19.1604 9.9302 19.1405 9.78071 19.1009C9.63123 19.0599 9.49905 19.0042 9.3842 18.9339C9.27105 18.8619 9.17454 18.7771 9.09465 18.6794C9.01648 18.5808 8.95185 18.4743 8.90077 18.36C8.8514 18.2443 8.81523 18.123 8.79225 17.996C8.77031 17.8687 8.75934 17.7395 8.75934 17.6085C8.75934 17.4786 8.77323 17.3501 8.801 17.2231C8.82843 17.0944 8.86974 16.9723 8.92494 16.8566C8.98014 16.741 9.04974 16.6337 9.13374 16.5347C9.21808 16.436 9.31683 16.3507 9.42997 16.2787C9.54345 16.2067 9.67134 16.1502 9.81363 16.1092C9.95728 16.0682 10.1162 16.0477 10.2904 16.0477C10.4645 16.0477 10.6228 16.0682 10.7651 16.1092C10.9091 16.1502 11.0376 16.2067 11.1508 16.2787C11.2656 16.3507 11.3651 16.436 11.4491 16.5347C11.5334 16.6337 11.6032 16.741 11.6584 16.8566C11.7149 16.9723 11.7569 17.0944 11.7844 17.2231C11.8121 17.3501 11.826 17.4786 11.826 17.6085C11.826 17.7395 11.8144 17.8687 11.7911 17.996C11.7677 18.123 11.7307 18.2443 11.68 18.36C11.6306 18.4743 11.566 18.5808 11.4861 18.6794C11.4062 18.7771 11.3097 18.8619 11.1965 18.9339C11.0834 19.0042 10.9512 19.0599 10.8 19.1009C10.6505 19.1405 10.4807 19.1604 10.2904 19.1604ZM9.73494 17.6085C9.73494 17.7779 9.74728 17.9225 9.77197 18.0425C9.79837 18.1625 9.83471 18.2605 9.881 18.3365C9.929 18.4128 9.98711 18.4686 10.0553 18.5039C10.1249 18.5393 10.2033 18.5569 10.2904 18.5569C10.3775 18.5569 10.4551 18.5393 10.5233 18.5039C10.5933 18.4686 10.6521 18.4128 10.6997 18.3365C10.7491 18.2605 10.7861 18.1625 10.8108 18.0425C10.8372 17.9225 10.8504 17.7779 10.8504 17.6085C10.8504 17.4389 10.8372 17.2941 10.8108 17.1741C10.7861 17.0528 10.7491 16.9541 10.6997 16.8781C10.6521 16.8005 10.5933 16.7433 10.5233 16.7067C10.4551 16.6697 10.3775 16.6512 10.2904 16.6512C10.2033 16.6512 10.1249 16.6697 10.0553 16.7067C9.98711 16.7433 9.929 16.8005 9.881 16.8781C9.83471 16.9541 9.79837 17.0528 9.77197 17.1741C9.74728 17.2941 9.73494 17.4389 9.73494 17.6085ZM12.3989 19.0989V16.1052H13.4352C13.5254 16.1052 13.6241 16.1087 13.7315 16.1157C13.8405 16.1214 13.9495 16.1341 14.0585 16.1537C14.1672 16.1721 14.2725 16.1989 14.3743 16.2342C14.4758 16.2682 14.5658 16.3134 14.6443 16.3697C14.7242 16.4247 14.7873 16.4932 14.8336 16.5752C14.8816 16.6555 14.9056 16.7515 14.9056 16.8631C14.9056 16.9295 14.8975 16.9958 14.8814 17.0621C14.8656 17.1271 14.8367 17.1871 14.7945 17.2421C14.7537 17.2971 14.6971 17.3451 14.6248 17.3861C14.5535 17.4271 14.4619 17.4561 14.3501 17.4731C14.4722 17.4801 14.5804 17.5076 14.6747 17.5556C14.7707 17.6019 14.8512 17.6604 14.9164 17.731C14.9819 17.8017 15.0312 17.88 15.0645 17.966C15.0995 18.0507 15.1169 18.1347 15.1169 18.218C15.1169 18.3296 15.0936 18.4383 15.047 18.5439C15.0007 18.6486 14.9224 18.7426 14.812 18.8259C14.7029 18.9076 14.5584 18.9739 14.3784 19.0249C14.1984 19.0742 13.9749 19.0989 13.7078 19.0989H12.3989ZM13.3745 17.8795V18.5569H13.769C13.8938 18.5569 13.9867 18.5259 14.0477 18.4639C14.1101 18.4003 14.1413 18.3183 14.1413 18.218C14.1413 18.1586 14.1304 18.1078 14.1084 18.0655C14.0882 18.0232 14.0498 17.9887 13.9932 17.962C13.9367 17.9337 13.8581 17.9132 13.7577 17.9005C13.6589 17.8865 13.5312 17.8795 13.3745 17.8795ZM13.3745 17.3376H13.6795C13.7477 17.3376 13.8101 17.3283 13.8667 17.3096C13.9233 17.2899 13.972 17.2646 14.0128 17.2336C14.0532 17.2026 14.0844 17.1666 14.1064 17.1256C14.1297 17.0846 14.1413 17.0423 14.1413 16.9986C14.1413 16.931 14.1275 16.8751 14.0997 16.8311C14.0723 16.7875 14.028 16.753 13.967 16.7277C13.906 16.7023 13.8268 16.6847 13.7294 16.6747C13.6324 16.6647 13.5141 16.6597 13.3745 16.6597V17.3376ZM15.7747 19.0994V16.1057H16.7503V19.0994H15.7747ZM17.4935 19.0994V16.1057H18.4691V18.4894H19.5146V19.0994H17.4935ZM20.0001 19.0994V16.1057H22.1606V16.6602H20.9757V17.2931H22.0212V17.8355H20.9757V18.4894H22.1606V19.0994H20.0001Z" fill="#EE9B1E"/>
</g>
<defs>
<clipPath id="clip0_159_121">
<rect width="27" height="20" fill="white"/>
</clipPath>
</defs>
</svg>
