<svg width="28" height="19" viewBox="0 0 28 19" fill="none" xmlns="http://www.w3.org/2000/svg">
<g clip-path="url(#clip0_152_396)">
<path fill-rule="evenodd" clip-rule="evenodd" d="M1.98291 0.00125506H26.0073C26.2942 0.00125506 26.5282 0.218778 26.5282 0.48237V2.6063H27.5002V3.89007H26.5282V10.5283H27.5002V11.8781H26.5282V14.1008C26.5282 14.3658 26.2932 14.5819 26.0078 14.5819H1.98291C1.69594 14.5819 1.46194 14.3658 1.46194 14.1008V11.9626H0.50177V10.6124H1.46194V4.081H0.50177V2.61913L1.46194 2.6196V0.480945C1.46194 0.216403 1.69594 0.000305176 1.98291 0.000305176V0.00125506ZM2.99451 13.2317H24.9972V1.35674L2.99451 1.35721V13.2317ZM8.7792 7.39466V7.42885C8.7792 7.85297 8.40377 8.20063 7.94349 8.20063H6.46748V11.814H4.89737C4.89737 10.61 4.89634 9.4046 4.89634 8.20063H4.8948V8.0762L4.63766 7.83873V6.95059L4.89634 6.71169V5.72144C4.8948 4.72169 4.8948 3.72337 4.8948 2.72457C5.93006 2.72457 6.90977 2.72457 7.94451 2.72457C8.40377 2.72457 8.78023 3.07127 8.78023 3.49634V7.39228L8.7792 7.39466ZM13.9118 2.86372V11.0398C13.9118 11.4649 13.5353 11.8116 13.0761 11.8116H10.5792C10.1189 11.8116 9.74349 11.4635 9.74349 11.0398V2.86372H11.3136V10.477H12.3432V2.86372H13.9118ZM17.5647 2.71269H17.7447C18.205 2.71269 18.5805 3.06082 18.5805 3.48447V6.75824L18.241 7.10019L18.6843 7.50722V11.0384C18.6843 11.4635 18.3079 11.8102 17.8486 11.8102H15.7529C15.7236 11.8102 15.6927 11.8092 15.6629 11.8054H14.9121V7.73994L14.6359 7.48489V6.59676L14.9121 6.34124V2.71032C14.9342 2.71032 17.5426 2.71032 17.5647 2.71032V2.71269ZM16.459 6.34266H17.0643V4.09239H16.459V6.34266ZM16.459 10.4913H17.1302V7.79598H16.459V10.4913ZM20.4525 2.71412H22.669C23.1293 2.71412 23.5047 3.06225 23.5047 3.48589V4.79341C23.5125 5.01188 23.5315 5.019 23.3222 5.01758H22.4129C22.1249 5.02233 22.1661 5.019 22.1625 4.76348V4.11662H21.229V10.5459H22.0519V7.53476H21.9105C21.751 7.53476 21.7536 7.55851 21.7536 7.41033V6.54926C21.7536 6.38066 21.7407 6.40108 21.9233 6.40108C22.3949 6.40203 22.8593 6.4044 23.3299 6.40583C23.5202 6.40583 23.5032 6.38778 23.5032 6.56351V11.0422C23.5032 11.4673 23.1267 11.814 22.6675 11.814H20.4509C19.9906 11.814 19.6152 11.4663 19.6152 11.0422V3.48732C19.6152 3.06225 19.9922 2.71554 20.4509 2.71554L20.4525 2.71412ZM7.21114 6.8651V4.0582H6.46903V6.8651H7.21114Z" fill="#EE9B1E"/>
<path d="M5.31937 18.1439V15.3H6.22554L6.99182 16.4061L7.75862 15.3H8.6864V18.1439H7.68868V16.5994L6.97022 17.7236H6.75885L6.01622 16.5994V18.1439H5.31937ZM10.7903 18.2023C10.6001 18.2023 10.4302 18.1835 10.2807 18.1458C10.1312 18.1069 9.99902 18.054 9.88417 17.9872C9.77102 17.9188 9.67451 17.8382 9.59462 17.7454C9.51645 17.6517 9.45182 17.5506 9.40074 17.442C9.35137 17.3321 9.31519 17.2168 9.29222 17.0962C9.27028 16.9753 9.25931 16.8526 9.25931 16.7281C9.25931 16.6046 9.2732 16.4826 9.30097 16.3619C9.3284 16.2397 9.36971 16.1237 9.42491 16.0138C9.48011 15.9039 9.54971 15.802 9.63371 15.708C9.71805 15.6142 9.81679 15.5332 9.92994 15.4648C10.0434 15.3964 10.1713 15.3427 10.3136 15.3038C10.4573 15.2648 10.6162 15.2454 10.7903 15.2454C10.9645 15.2454 11.1227 15.2648 11.265 15.3038C11.409 15.3427 11.5376 15.3964 11.6507 15.4648C11.7656 15.5332 11.865 15.6142 11.949 15.708C12.0334 15.802 12.1031 15.9039 12.1583 16.0138C12.2149 16.1237 12.2569 16.2397 12.2843 16.3619C12.3121 16.4826 12.326 16.6046 12.326 16.7281C12.326 16.8526 12.3143 16.9753 12.291 17.0962C12.2677 17.2168 12.2307 17.3321 12.1799 17.442C12.1306 17.5506 12.0659 17.6517 11.9861 17.7454C11.9062 17.8382 11.8097 17.9188 11.6965 17.9872C11.5834 18.054 11.4512 18.1069 11.3 18.1458C11.1505 18.1835 10.9806 18.2023 10.7903 18.2023ZM10.2349 16.7281C10.2349 16.889 10.2473 17.0264 10.2719 17.1404C10.2983 17.2544 10.3347 17.3474 10.381 17.4196C10.429 17.4921 10.4871 17.5452 10.5553 17.5787C10.6249 17.6123 10.7033 17.6291 10.7903 17.6291C10.8774 17.6291 10.9551 17.6123 11.0233 17.5787C11.0933 17.5452 11.1521 17.4921 11.1997 17.4196C11.2491 17.3474 11.2861 17.2544 11.3108 17.1404C11.3372 17.0264 11.3504 16.889 11.3504 16.7281C11.3504 16.567 11.3372 16.4294 11.3108 16.3154C11.2861 16.2002 11.2491 16.1064 11.1997 16.0342C11.1521 15.9605 11.0933 15.9062 11.0233 15.8713C10.9551 15.8362 10.8774 15.8186 10.7903 15.8186C10.7033 15.8186 10.6249 15.8362 10.5553 15.8713C10.4871 15.9062 10.429 15.9605 10.381 16.0342C10.3347 16.1064 10.2983 16.2002 10.2719 16.3154C10.2473 16.4294 10.2349 16.567 10.2349 16.7281ZM12.8989 18.1439V15.3H13.9352C14.0254 15.3 14.1241 15.3033 14.2314 15.31C14.3405 15.3153 14.4495 15.3274 14.5585 15.346C14.6672 15.3635 14.7725 15.389 14.8743 15.4225C14.9758 15.4548 15.0658 15.4977 15.1443 15.5512C15.2242 15.6035 15.2873 15.6685 15.3335 15.7464C15.3815 15.8227 15.4055 15.9139 15.4055 16.02C15.4055 16.083 15.3975 16.146 15.3814 16.209C15.3656 16.2708 15.3366 16.3278 15.2945 16.38C15.2537 16.4322 15.1971 16.4778 15.1247 16.5168C15.0534 16.5557 14.9619 16.5833 14.8501 16.5994C14.9722 16.6061 15.0803 16.6322 15.1746 16.6778C15.2706 16.7218 15.3512 16.7774 15.4163 16.8445C15.4818 16.9116 15.5312 16.986 15.5645 17.0677C15.5994 17.1481 15.6169 17.2279 15.6169 17.3071C15.6169 17.4131 15.5936 17.5164 15.547 17.6167C15.5007 17.7162 15.4223 17.8054 15.3119 17.8846C15.2029 17.9622 15.0584 18.0252 14.8784 18.0736C14.6984 18.1205 14.4749 18.1439 14.2078 18.1439H12.8989ZM13.8745 16.9855V17.6291H14.269C14.3938 17.6291 14.4867 17.5996 14.5477 17.5407C14.6101 17.4803 14.6413 17.4024 14.6413 17.3071C14.6413 17.2507 14.6303 17.2024 14.6084 17.1622C14.5882 17.122 14.5498 17.0892 14.4932 17.0639C14.4366 17.037 14.3581 17.0175 14.2577 17.0055C14.1589 16.9922 14.0312 16.9855 13.8745 16.9855ZM13.8745 16.4707H14.1795C14.2477 16.4707 14.3101 16.4618 14.3667 16.4441C14.4233 16.4254 14.4719 16.4014 14.5127 16.3719C14.5532 16.3425 14.5844 16.3083 14.6063 16.2693C14.6297 16.2304 14.6413 16.1902 14.6413 16.1487C14.6413 16.0844 14.6274 16.0314 14.5997 15.9896C14.5722 15.9481 14.528 15.9153 14.467 15.8913C14.4059 15.8672 14.3267 15.8504 14.2294 15.8409C14.1323 15.8314 14.0141 15.8267 13.8745 15.8267V16.4707ZM16.2747 18.1444V15.3005H17.2503V18.1444H16.2747ZM17.9934 18.1444V15.3005H18.969V17.565H20.0146V18.1444H17.9934ZM20.5001 18.1444V15.3005H22.6606V15.8272H21.4757V16.4284H22.5212V16.9437H21.4757V17.565H22.6606V18.1444H20.5001Z" fill="#EE9B1E"/>
</g>
<defs>
<clipPath id="clip0_152_396">
<rect width="27" height="19" fill="white" transform="translate(0.5)"/>
</clipPath>
</defs>
</svg>
