<svg width="25" height="24" viewBox="0 0 25 24" fill="none" xmlns="http://www.w3.org/2000/svg">
<path opacity="0.5" d="M19.5 14.25C19.9142 14.25 20.25 14.5858 20.25 15V21.25H21.5C21.9142 21.25 22.25 21.5858 22.25 22C22.25 22.4142 21.9142 22.75 21.5 22.75H3.5C3.08579 22.75 2.75 22.4142 2.75 22C2.75 21.5858 3.08579 21.25 3.5 21.25H4.75V15C4.75 14.5858 5.08579 14.25 5.5 14.25C5.91421 14.25 6.25 14.5858 6.25 15V21.25H18.75V15C18.75 14.5858 19.0858 14.25 19.5 14.25Z" fill="#FF5501"/>
<path d="M17.0279 2H7.97226C6.76944 2 6.16803 2 5.68473 2.2987C5.20142 2.5974 4.93247 3.13531 4.39455 4.21114L2.99094 7.75929C2.66665 8.57905 2.38291 9.54525 2.92879 10.2375C3.29501 10.7019 3.86269 11 4.50004 11C5.6046 11 6.50004 10.1046 6.50004 9C6.50004 10.1046 7.39547 11 8.50004 11C9.6046 11 10.5 10.1046 10.5 9C10.5 10.1046 11.3955 11 12.5 11C13.6046 11 14.5 10.1046 14.5 9C14.5 10.1046 15.3955 11 16.5 11C17.6046 11 18.5 10.1046 18.5 9C18.5 10.1046 19.3955 11 20.5 11C21.1374 11 21.7051 10.7019 22.0713 10.2375C22.6172 9.54525 22.3335 8.57905 22.0092 7.75929L20.6056 4.21114C20.0677 3.13531 19.7987 2.5974 19.3154 2.2987C18.8321 2 18.2307 2 17.0279 2Z" fill="#FF5501"/>
</svg>
