<svg width="25" height="24" viewBox="0 0 25 24" fill="none" xmlns="http://www.w3.org/2000/svg">
<path fill-rule="evenodd" clip-rule="evenodd" d="M14.5137 17L14.5079 19.0029C14.5065 19.4731 14.5058 19.7081 14.3591 19.8541C14.2124 20 13.9767 20 13.5054 20H10.495C6.71438 20 4.82407 20 3.64958 18.8284C2.84091 18.0218 2.58903 16.8766 2.51058 15.0105C2.49502 14.6405 2.48724 14.4554 2.55634 14.332C2.62545 14.2085 2.90133 14.0545 3.45308 13.7463C4.06586 13.4041 4.48007 12.7503 4.48007 12C4.48007 11.2497 4.06586 10.5959 3.45308 10.2537C2.90133 9.94554 2.62545 9.79147 2.55634 9.66802C2.48724 9.54458 2.49502 9.35954 2.51058 8.98947C2.58903 7.12339 2.84091 5.97823 3.64958 5.17157C4.82407 4 6.71439 4 10.495 4H14.0052C14.2814 4 14.5056 4.22298 14.5064 4.49855L14.5137 7C14.5137 7.55228 14.9625 8 15.5162 8L15.5162 10C14.9625 10 14.5137 10.4477 14.5137 11V13C14.5137 13.5523 14.9625 14 15.5162 14V16C14.9625 16 14.5137 16.4477 14.5137 17Z" fill="#FF5501"/>
<path opacity="0.5" d="M15.5166 15.9998C16.0703 15.9998 16.5191 16.4475 16.5191 16.9998V18.9763C16.5191 19.4578 16.5191 19.6986 16.6735 19.8462C16.8279 19.9939 17.0641 19.9839 17.5366 19.9639C19.3995 19.885 20.5441 19.633 21.3508 18.8282C22.1595 18.0216 22.4114 16.8764 22.4898 15.0104C22.5054 14.6403 22.5132 14.4552 22.4441 14.3318C22.375 14.2083 22.0991 14.0543 21.5473 13.7462C20.9346 13.404 20.5203 12.7501 20.5203 11.9998C20.5203 11.2495 20.9346 10.5957 21.5473 10.2535C22.0991 9.94536 22.375 9.7913 22.4441 9.66785C22.5132 9.5444 22.5054 9.35936 22.4898 8.98929C22.4114 7.12321 22.1595 5.97805 21.3508 5.17139C20.4731 4.29586 19.1956 4.07463 17.0282 4.01872C16.7486 4.01151 16.5191 4.237 16.5191 4.516V6.99982C16.5191 7.55211 16.0703 7.99982 15.5166 7.99982L15.5166 9.99982C16.0703 9.99982 16.5191 10.4475 16.5191 10.9998V12.9998C16.5191 13.5521 16.0703 13.9998 15.5166 13.9998V15.9998Z" fill="#FF5501"/>
</svg>
