<svg width="23" height="18" viewBox="0 0 23 18" fill="none" xmlns="http://www.w3.org/2000/svg">
<path d="M0.623241 0.0299545C0.754767 -0.0509846 0.845823 0.110894 0.916645 0.20195C5.59088 6.05992 10.2752 11.9078 14.9596 17.7556C15.0506 17.8366 14.9798 18.0187 14.8483 17.9984C12.6123 17.9984 10.3663 17.9984 8.13034 17.9984C7.94823 17.9984 7.77623 17.9074 7.66494 17.7759C5.33794 14.8722 3.02106 11.9685 0.694062 9.06478C0.592889 8.94337 0.542301 8.79161 0.552418 8.63985C0.552418 5.83734 0.552418 3.0247 0.552418 0.222185C0.552418 0.151363 0.552419 0.0603067 0.623241 0.0299545Z" fill="#FF4655"/>
<path d="M22.2644 0.00983635C22.3555 -0.0306332 22.4668 0.0604233 22.4465 0.161597C22.4465 2.96411 22.4465 5.77675 22.4465 8.57926C22.4566 8.74114 22.4162 8.90302 22.315 9.02443C21.6068 9.90464 20.8986 10.795 20.1903 11.6752C20.0689 11.8269 19.8767 11.9079 19.6845 11.9079C17.4586 11.9079 15.2328 11.9079 13.007 11.9079C12.8755 11.9281 12.8046 11.746 12.8957 11.6651C15.9815 7.80022 19.0673 3.9455 22.1531 0.0806581C22.1936 0.0604234 22.2239 0.0300711 22.2644 0.00983635Z" fill="#FF4655"/>
</svg>
