<svg width="30" height="31" viewBox="0 0 30 31" fill="none" xmlns="http://www.w3.org/2000/svg">
<path d="M4.12318 6.52999C4.25471 6.44905 4.34576 6.61092 4.41658 6.70198C9.09082 12.5599 13.7752 18.4078 18.4595 24.2556C18.5506 24.3366 18.4798 24.5187 18.3482 24.4985C16.1123 24.4985 13.8662 24.4985 11.6303 24.4985C11.4482 24.4985 11.2762 24.4074 11.1649 24.2759C8.83788 21.3722 6.521 18.4685 4.194 15.5648C4.09283 15.4434 4.04224 15.2916 4.05236 15.1399C4.05236 12.3374 4.05236 9.52473 4.05236 6.72222C4.05236 6.65139 4.05236 6.56034 4.12318 6.52999Z" fill="white"/>
<path d="M25.7644 6.50984C25.8555 6.46937 25.9668 6.56042 25.9465 6.6616C25.9465 9.46411 25.9465 12.2767 25.9465 15.0793C25.9566 15.2411 25.9162 15.403 25.815 15.5244C25.1068 16.4046 24.3986 17.295 23.6903 18.1752C23.5689 18.3269 23.3767 18.4079 23.1845 18.4079C20.9586 18.4079 18.7328 18.4079 16.507 18.4079C16.3755 18.4281 16.3046 18.246 16.3957 18.1651C19.4815 14.3002 22.5673 10.4455 25.6531 6.58066C25.6936 6.56042 25.7239 6.53007 25.7644 6.50984Z" fill="white"/>
</svg>
