<svg width="58" height="27" viewBox="0 0 58 27" fill="none" xmlns="http://www.w3.org/2000/svg">
<path d="M0.502866 0.316528C2.82203 1.58491 5.17272 2.80463 7.43749 4.1675C7.87555 4.43091 8.17046 5.24405 8.1905 5.81668C8.2764 8.02705 8.22486 10.2431 8.22486 12.8858C9.91127 11.3197 11.3658 9.97114 12.8746 8.57105C14.1316 9.69055 15.3513 10.7728 16.8287 12.087V4.91192H20.1442V15.8578C18.9159 15.8578 17.4443 16.1842 16.2331 15.7633C15.0678 15.3625 14.1716 14.1886 13.0636 13.2781C11.7379 14.495 10.3379 15.6345 9.14966 16.9601C8.75168 17.4039 8.70586 18.3602 8.82325 19.0273C9.22982 21.3351 9.77953 23.6199 9.98282 26.0364C9.74231 25.6184 9.47607 25.2118 9.26419 24.7766C6.90494 19.9378 5.74822 14.7498 4.85777 9.49585C4.68025 8.45079 4.23646 7.74073 3.24294 7.39143C1.65674 6.83311 0.949539 5.72792 0.915181 4.06156C0.895138 3.09381 0.646022 2.13178 0.5 1.16689V0.316528H0.502866Z" fill="white"/>
<path d="M46.9578 26.8982C47.3386 23.388 47.7194 19.8749 48.1231 16.147H37.4893V4.89478H40.782V12.7513H48.0029C48.0029 10.7328 48.1117 8.67417 47.9685 6.62986C47.8597 5.05512 48.4295 4.25629 49.8811 3.64644C52.3606 2.60711 54.7399 1.33014 57.5 -0.00982666C57.1393 1.51052 56.8815 2.71877 56.5466 3.90699C56.475 4.15608 56.1429 4.38228 55.8794 4.51971C55.3784 4.78026 54.8287 4.95205 54.3133 5.18969C52.2661 6.14026 51.9855 6.64418 52.2031 9.09505C53.5488 8.41934 54.843 7.7694 56.2803 7.04788C56.0627 9.08074 56.034 10.9847 53.6805 11.7234C52.0829 12.2245 51.3671 13.4356 51.0178 15.0648C50.4251 17.8277 49.6807 20.562 48.8847 23.2735C48.5096 24.559 47.874 25.7673 47.3558 27.0099L46.9549 26.8982H46.9578Z" fill="white"/>
<path d="M32.3041 11.689H35.3562C35.6941 13.0032 35.6569 14.2544 34.649 15.2107C33.395 16.3989 31.8403 16.2987 30.2197 15.9666V13.2151C30.841 13.1664 31.3936 13.1235 32.0292 13.0719C32.1123 12.6511 32.1982 12.2158 32.3041 11.689Z" fill="white"/>
<path d="M32.3671 9.25252C32.5847 7.33992 31.1016 8.0099 30.2111 7.69781V5.0637C32.7994 4.2162 34.9125 5.02648 35.4106 7.04215C35.8287 8.73715 35.425 9.25824 33.7071 9.24965C33.3349 9.24965 32.9598 9.24965 32.3671 9.24965V9.25252Z" fill="white"/>
<path d="M25.4525 9.17236H22.598C21.8449 5.74801 23.8005 4.14463 27.6743 5.00931V7.62911C27.0072 7.68637 26.4088 7.74077 25.756 7.79803C25.6558 8.25042 25.5671 8.65413 25.4525 9.17236Z" fill="white"/>
<path d="M25.7904 13.009C26.4146 13.0434 26.9757 13.0748 27.7603 13.1207C27.7603 13.8135 27.8662 14.5179 27.7202 15.165C27.6371 15.5315 27.1819 16.0268 26.824 16.0926C23.7747 16.6424 22.0854 14.9245 22.5235 11.8007C24.7539 11.2052 25.4096 11.4257 25.7904 13.0119V13.009Z" fill="white"/>
<path d="M42.3195 23.2448V19.4254H40.1063V23.2448C39.5604 23.1284 39.1691 21.86 38.9324 19.4397H36.9539C36.8508 20.6422 36.7477 21.8533 36.6132 23.4052C35.6397 21.7531 35.7027 19.7747 36.5216 19.0274C37.2717 18.3431 41.4147 18.2572 42.308 18.9043C43.1068 19.4855 43.2787 21.8075 42.3195 23.242V23.2448Z" fill="white"/>
<path d="M28.4216 23.6714C27.7402 21.1375 28.0351 19.5485 29.1117 18.8928C30.1939 18.2314 32.8223 18.303 33.604 19.0159C34.2997 19.6515 34.3741 21.9077 33.5667 23.6457C33.3778 22.7982 33.2604 22.2713 33.1201 21.65H29.2605C29.0229 22.2227 28.7938 22.781 28.4245 23.6714H28.4216ZM31.1703 20.5993C31.1703 20.5993 31.1703 20.6078 31.1703 20.6107C31.5482 20.6107 31.9491 20.6909 32.2955 20.5878C32.6248 20.4876 32.8939 20.1955 33.1888 19.9865C32.9111 19.7661 32.6505 19.3824 32.3556 19.3566C31.468 19.2736 30.5633 19.2936 29.6728 19.3566C29.4581 19.3738 29.1145 19.726 29.1117 19.9293C29.1088 20.1497 29.4037 20.5248 29.6213 20.5678C30.1224 20.6622 30.652 20.5993 31.1703 20.5993Z" fill="white"/>
<path d="M26.134 23.302C24.7282 23.302 23.308 23.4051 21.9223 23.2448C21.4642 23.1904 20.7913 22.5003 20.7169 22.0222C20.2702 19.1848 20.9402 18.4776 23.8835 18.489C24.6595 18.489 25.4354 18.6007 26.2084 18.658C26.2084 18.8068 26.2113 18.9586 26.2142 19.1075H21.7304C21.6617 19.7059 21.6188 20.0981 21.5472 20.7366H26.0395C26.0452 20.8998 26.0509 21.0659 26.0538 21.2291H21.6417V22.947H26.1311C26.1311 23.0672 26.1311 23.1846 26.1311 23.3049L26.134 23.302Z" fill="white"/>
<path d="M18.7957 19.2021C18.0713 19.2393 17.3497 19.2765 16.4622 19.3223V23.2391C15.0048 23.2964 15.4257 22.3344 15.3856 21.6959C15.3427 20.9543 15.3742 20.207 15.3742 19.3567C14.9304 19.3252 14.521 19.3137 14.1172 19.2622C13.7708 19.2164 13.4329 19.1248 13.1094 18.8843C15.0249 18.3861 16.9117 18.3173 18.7871 18.7525C18.7871 18.9014 18.7928 19.0532 18.7957 19.2021Z" fill="white"/>
</svg>
